<?xml version="1.0" encoding="UTF-8" standalone="no"?>
<!-- Created with Inkscape (http://www.inkscape.org/) -->

<svg
   width="300"
   height="300"
   viewBox="0 0 300 300"
   version="1.1"
   id="svg1"
   xml:space="preserve"
   xmlns="http://www.w3.org/2000/svg"
   xmlns:svg="http://www.w3.org/2000/svg"><defs
     id="defs1" /><g
     id="layer1"><rect
       style="fill:#e9e2d4;fill-opacity:1;stroke-width:1.09668"
       id="rect64-1"
       width="11.125"
       height="10"
       x="207"
       y="194" /><rect
       style="fill:#e9e2d4;fill-opacity:1"
       id="rect64"
       width="9.25"
       height="10"
       x="167.25"
       y="82.125" /><rect
       style="fill:#e9e2d4;fill-opacity:1"
       id="rect64-2"
       width="9.25"
       height="10"
       x="84.625"
       y="82.125" /><rect
       style="fill:#e9e2d4;fill-opacity:1"
       id="rect64-6"
       width="9.25"
       height="10"
       x="125"
       y="79" /><g
       id="g61"
       transform="matrix(0.24239705,0,0,0.24239705,263.44302,-92.185974)"><path
         style="fill:#e9e2d4"
         d="m -736.34815,1297.4492 c -2.94148,-0.8021 -6.54148,-2.3919 -8,-3.5328 -3.98587,-3.1178 -8.15185,-9.8406 -8.15185,-13.1549 0,-1.6156 -1.6875,-6.6104 -3.75,-11.0995 L -760,1261.5 v -99 -99 l 2.3396,-4.5 c 3.1666,-6.0906 6.7023,-9.6774 12.6604,-12.8432 l 5,-2.6568 45.75,-0.297 45.75,-0.2969 0.22619,-34.4531 c 0.12441,-18.94913 0.23691,-38.5317 0.25,-43.51677 l 0.0238,-9.06377 -41.68683,0.0941 c -27.98209,0.0631 -43.16247,-0.2775 -46.17539,-1.03616 -6.44991,-1.62411 -12.89875,-8.06361 -14.50824,-14.48721 -0.68121,-2.71874 -1.97209,-6.29317 -2.86864,-7.94317 -0.89655,-1.65 -2.78452,-5.25 -4.19549,-8 l -2.56541,-5 -0.26913,-98.33233 -0.26913,-98.33233 2.64865,-5.90198 c 3.09454,-6.89555 10.1589,-14.00136 15.9453,-16.03888 3.26717,-1.15044 20.85422,-1.38015 102.44431,-1.33808 l 98.5,0.0508 5,2.22457 c 3.54798,1.57854 6.09325,3.71088 8.76458,7.34264 6.52734,8.87415 6.69217,10.25927 7.00041,58.8256 l 0.27609,43.5 h 51.68276 51.68275 l 0.29671,-45 0.2967,-45 2.79009,-5.6816 c 3.16099,-6.43691 8.00593,-11.13432 14.6591,-14.21274 C -394.02125,699.50983 -393.54,699.5 -295.5,699.5 h 98.5 l 5.70006,2.79911 c 4.52544,2.2223 6.51689,4.02234 9.66393,8.73507 2.18013,3.26477 4.45261,8.21482 5.04994,11.00011 1.42526,6.64575 1.51269,191.8899 0.093,197.00023 -0.54007,1.94399 -2.37271,5.72755 -4.07256,8.40793 -1.72935,2.72691 -3.47025,7.20593 -3.95253,10.16918 -0.47405,2.91268 -1.31529,6.14292 -1.86942,7.17832 -1.84973,3.45626 -8.92598,9.0645 -12.79163,10.13793 -2.41735,0.67126 -19.49594,1.06301 -46.49587,1.06654 l -42.67508,0.006 0.0168,43.5 0.0168,43.49998 h 43.72676 c 49.42963,0 50.55379,0.1354 58.38756,7.0309 2.59567,2.2848 5.80912,6.523 7.39605,9.7547 L -176,1065.5 v 98.5 98.5 l -3.25,6.6617 c -2.12381,4.3534 -3.2557,8.1651 -3.26645,11 -0.023,6.0516 -3.44302,11.6094 -9.41686,15.3029 l -4.90938,3.0354 -96.07865,0.1773 c -80.10677,0.1479 -96.83925,-0.057 -100.65397,-1.2293 -8.11019,-2.4934 -13.90075,-10.1755 -13.91911,-18.4659 -0.003,-1.3848 -1.16374,-4.2222 -2.57927,-6.3054 -6.60864,-9.7254 -6.3802,-7.6771 -6.40435,-57.4267 L -416.5,1170 h -50.87756 c -42.22303,0 -51.07385,0.2365 -52.03152,1.3905 -0.83736,1.0089 -1.12544,13.5913 -1.04996,45.8586 0.11134,47.5988 0.12013,47.5028 -5.01417,54.7133 -1.11473,1.5655 -2.02679,4.1828 -2.02679,5.8162 0,4.1661 -2.6557,11.2229 -5.2838,14.0402 -1.21891,1.3067 -4.0162,3.3445 -6.2162,4.5285 l -4,2.1527 -94,0.2039 c -79.71085,0.1728 -94.81298,-0.018 -99.34815,-1.2547 z m 543.43155,-97.4028 c 0.32442,-2.46 -1.0624,-5.0464 -2.70584,-5.0464 -1.04328,0 -1.19443,10.3498 -0.16617,11.3781 0.80939,0.8093 2.38975,-2.6747 2.87201,-6.3317 z M -436.33731,1155 H -416.5 v -34.5 c 0,-18.975 -0.25642,-34.5 -0.56982,-34.5 -0.31341,0 -2.51617,1.3391 -4.89504,2.9758 -6.44154,4.4319 -28.56275,11.0242 -36.99298,11.0242 H -461.5 v 23 c 0,21.6667 -0.11594,23.1159 -2,25 -2.25743,2.2574 -6.78656,2.6233 -9.28467,0.75 -1.4576,-1.093 -1.70137,-4.1683 -1.94113,-24.4877 -0.1847,-15.653 -0.63103,-23.3751 -1.36743,-23.6585 -0.60127,-0.2314 -3.75127,-0.7437 -7,-1.1386 -7.59563,-0.9231 -23.00977,-6.3993 -30.39421,-10.7981 l -5.76178,-3.4323 -0.6167,5.1326 c -0.80951,6.7374 -0.81387,54.0417 -0.006,59.9393 0.5748,4.1936 0.89552,4.6261 3.75,5.0573 1.7168,0.2593 15.90716,0.2835 31.53414,0.054 15.62698,-0.2297 37.33948,-0.4177 48.25,-0.4177 z m -114.56407,-116.75 c -4.87605,-9.1684 -8.7711,-20.7947 -10.42701,-31.1235 L -563,996.69979 l -30.27488,0.62523 c -29.25493,0.60416 -30.34142,0.55868 -32.25,-1.3499 -2.26304,-2.26304 -2.58317,-6.7613 -0.66761,-9.38098 1.20804,-1.6521 3.68026,-1.7866 32.50027,-1.76815 l 31.19278,0.02 0.46331,-2.17299 c 0.25481,-1.19514 1.19757,-5.95044 2.095,-10.56733 0.89744,-4.61688 2.24386,-10.12938 2.99206,-12.25 l 1.36035,-3.85565 -29.95564,-0.225 c -16.4756,-0.12375 -33.89314,-0.23625 -38.70564,-0.25 l -8.75,-0.025 0.0679,8.5 c 0.0373,4.675 0.17254,16.89323 0.30046,27.15162 0.12793,10.25836 -0.0829,26.12086 -0.46839,35.24996 L -633.80106,1043 h 42.71294 42.71294 z m 247.1845,-38.75 0.0596,-43.5 h -37.92138 c -24.329,0 -37.92139,0.35444 -37.92139,0.98884 0,0.54387 0.86342,4.25637 1.91872,8.25 1.05529,3.99364 2.20235,9.36186 2.54901,11.92939 0.34666,2.56753 1.17074,5.09901 1.83128,5.62553 0.67323,0.53662 14.56721,1.17352 31.61758,1.44935 34.08721,0.55143 33.08341,0.31134 33.08341,7.91284 0,2.75689 -0.54176,4.06362 -2.01065,4.84975 -1.346,0.72036 -12.22899,0.97991 -32.9222,0.78519 l -30.9115,-0.29089 -1.13905,7.7947 c -0.62648,4.2871 -2.48106,12.574 -4.1213,18.4154 -1.64024,5.8415 -2.75387,11.2159 -2.47474,11.9434 0.27913,0.7274 0.0175,1.2154 -0.5815,1.0845 -0.59895,-0.1309 -1.29536,0.3248 -1.54757,1.0127 -0.29383,0.8014 0.11032,1.0324 1.125,0.643 0.87096,-0.3342 1.58356,-0.1095 1.58356,0.4993 0,0.6089 -0.8449,1.107 -1.87756,1.107 -1.03265,0 -2.43775,0.675 -3.12244,1.5 -1.10321,1.3293 3.5334,1.5 40.73928,1.5 h 41.98418 z M -416.5,869.21278 v -42.78723 l -51.96736,-0.033 -51.96736,-0.033 0.072,40.68053 c 0.0396,22.37429 0.43736,41.27171 0.88392,41.99426 0.64196,1.03872 2.08077,0.74431 6.87318,-1.4064 9.75205,-4.37646 25.14903,-9.33208 31.29167,-10.07143 l 5.68603,-0.68439 0.64135,-5.18603 c 0.35274,-2.85232 0.46463,-17.21665 0.24864,-31.92072 -0.25392,-17.28628 -0.0339,-27.09351 0.62262,-27.75 1.32105,-1.32105 8.19943,-1.30826 10.68106,0.0199 1.85041,0.99031 1.93426,2.42078 1.93426,33 0,17.58065 0.3375,31.96822 0.75,31.97237 9.13482,0.092 39.42481,10.23022 41.73557,13.9691 2.17608,3.52097 2.51443,-2.09891 2.51443,-41.76387 z m 223.86645,-16.46278 -0.13354,-10.25 -0.95014,7.8485 c -0.85829,7.08976 -0.53461,12.6515 0.73628,12.6515 0.26452,0 0.42085,-4.6125 0.3474,-10.25 z m -197.14172,-32.98209 c -0.22256,-1.79735 -0.40925,-0.56791 -0.41486,2.73209 -0.006,3.3 0.17648,4.77056 0.40466,3.26791 0.22817,-1.50265 0.23276,-4.20265 0.0102,-6 z m -283.99123,-4.99148 c -0.21125,-2.35204 -0.38706,-0.67643 -0.39069,3.72357 -0.004,4.4 0.16921,6.32439 0.38408,4.27643 0.21488,-2.04796 0.21785,-5.64796 0.007,-8 z M -192.61831,794.25 c -0.0763,-7.57531 -0.38954,-10.68412 -0.88169,-8.75 -1.39053,5.46472 -0.93214,20.5 0.625,20.5 0.20625,0 0.32176,-5.2875 0.25669,-11.75 z M -192.5,734.03138 c 0,-7.30524 -0.26141,-8.8683 -1.40947,-8.42774 -1.0816,0.41504 -1.19791,1.27854 -0.5,3.71201 0.50021,1.74413 0.90947,5.53662 0.90947,8.42775 0,2.89113 0.225,5.2566 0.5,5.2566 0.275,0 0.5,-4.03588 0.5,-8.96862 z M -387.19346,724.75 c -0.63119,-1.11498 -7.09079,-0.90812 -7.80654,0.25 -0.33992,0.55 0.0932,1 0.96242,1 0.86925,0 2.09365,1.12634 2.72089,2.50298 l 1.14043,2.50297 1.70369,-2.75297 c 0.93702,-1.51414 1.51262,-3.09048 1.27911,-3.50298 z M -545.5,725.5 c 0,-0.825 -0.42344,-1.5 -0.94098,-1.5 -1.26098,0 -2.1641,1.56159 -1.36517,2.36052 1.12619,1.12618 2.30615,0.68589 2.30615,-0.86052 z m -187,-1.11663 c 0,-0.21085 -1.15156,-0.38337 -2.55902,-0.38337 -1.40746,0 -2.30701,0.40775 -1.999,0.90612 0.51233,0.82898 4.55802,0.36498 4.55802,-0.52275 z M -200,725 c -0.33992,-0.55 -1.04148,-1 -1.55902,-1 -0.51754,0 -0.94098,0.45 -0.94098,1 0,0.55 0.70156,1 1.55902,1 0.85746,0 1.2809,-0.45 0.94098,-1 z m -272.55552,555.1561 -2.27708,-1.8438 0.2162,-50.4062 c 0.19777,-46.1092 0.36113,-50.5174 1.9163,-51.7119 2.15799,-1.6575 8.22611,-0.6864 9.97694,1.5965 1.00478,1.3102 1.21786,12.1414 1,50.8329 -0.26313,46.7334 -0.37116,49.2721 -2.18183,51.2721 -2.34899,2.5948 -5.64522,2.694 -8.65053,0.2604 z M -757.3793,995.42729 c -2.04024,-1.75485 -2.30501,-2.63128 -1.72652,-5.71492 0.37581,-2.00322 1.2046,-3.9644 1.84177,-4.3582 1.99216,-1.23122 103.74837,-1.07799 104.77396,0.15778 1.43653,1.73091 2.15627,8.8432 1.06135,10.48805 -0.86592,1.30085 -7.80573,1.5 -52.26963,1.5 -50.42893,0 -51.31072,-0.034 -53.68093,-2.07271 z m 472.39959,0.29828 c -1.10026,-1.5709 -0.65738,-9.02173 0.60268,-10.13922 0.20737,-0.1839 23.23715,-0.65299 51.17729,-1.04243 57.02772,-0.79488 55.69974,-0.93573 55.69974,5.9077 0,3.0278 -1.9468,6.40521 -3.82143,6.62961 -0.37321,0.0447 -23.56937,0.15717 -51.54702,0.25 -47.6895,0.15822 -50.94612,0.0579 -52.11126,-1.60566 z M -471.25,805.2766 c -1.7875,-0.22182 -3.30455,-0.71231 -3.37121,-1.08996 -0.75172,-4.25834 -0.57879,-96.40318 0.1854,-98.78931 1.35278,-4.22397 5.09301,-5.88452 8.86307,-3.93495 1.55671,0.80501 3.10991,2.1921 3.45156,3.08242 0.34165,0.89033 0.62118,23.61614 0.62118,50.5018 0,47.30577 -0.0624,48.91643 -1.93426,49.91822 -1.06384,0.56935 -2.52634,0.96316 -3.25,0.87514 -0.72366,-0.088 -2.77824,-0.34153 -4.56574,-0.56336 z"
         id="path64" /><path
         style="fill:#63cecb"
         d="m -740.3708,1294.3771 c -6.13633,-3.0579 -9.71905,-7.8369 -10.74643,-14.3348 -0.38764,-2.4517 -2.31984,-7.8517 -4.29379,-12 L -759,1260.5 v -98 -98 l 2.2022,-4.1165 c 3.43403,-6.419 7.11781,-10.2494 12.67806,-13.1827 L -739,1044.5 l 45.5,-0.2416 c 25.025,-0.1329 45.84213,-0.2454 46.2603,-0.25 0.41816,0 0.64316,-20.1459 0.5,-44.7584 L -647,954.5 h -44 -44 l -4.77239,-2.80528 c -5.50975,-3.2387 -9.29965,-8.47418 -10.2754,-14.19472 -0.37525,-2.2 -1.96484,-6.03997 -3.53241,-8.53326 -6.1066,-9.71283 -5.98597,-7.34742 -5.68963,-111.56846 0.26882,-94.54141 0.27787,-94.91566 2.40716,-99.52068 2.8546,-6.17367 8.95023,-12.77465 13.86267,-15.01194 3.78301,-1.72291 9.3433,-1.82174 102.5,-1.82174 111.60292,0 102.51455,-0.68601 110.82626,8.36552 7.90623,8.60996 7.61277,6.54227 8.17374,57.59056 l 0.5,45.5 52.59349,0.25876 52.59349,0.25876 0.65651,-15.16775 c 0.36108,-8.34227 0.66639,-28.93371 0.67847,-45.75876 0.0198,-27.57999 0.20371,-30.99116 1.86845,-34.65639 2.7502,-6.05505 7.97183,-11.46133 13.60231,-14.08331 l 5.00728,-2.33177 98.43428,-0.01 c 97.33196,-0.01 98.48189,0.0133 102.68642,2.04866 5.20776,2.52103 10.88768,8.64619 13.74197,14.81917 2.13694,4.62156 2.13733,4.64007 2.13733,102.24373 v 97.62132 l -4.18068,8.37868 c -2.29938,4.60827 -4.41781,10.12299 -4.70763,12.25494 -0.67297,4.95058 -3.98286,9.76911 -8.90103,12.95811 -5.57005,3.61169 -13.30766,4.06698 -56.40404,3.31895 -23.12855,-0.40145 -37.41523,-0.28662 -37.78004,0.30367 -0.65835,1.06523 -0.94018,87.96273 -0.2874,88.61553 0.22937,0.2294 20.85689,0.5319 45.83893,0.6723 50.07852,0.2814 48.70816,0.1166 56.28284,6.7673 2.04352,1.7942 4.90412,5.2904 6.35689,7.7694 2.46348,4.2036 2.6941,5.6594 3.42386,21.6129 0.43036,9.4081 0.68703,54.0056 0.57038,99.1056 l -0.21208,82 -3.1725,7 c -1.74487,3.85 -3.42483,9.1453 -3.73323,11.7672 -0.79359,6.747 -3.00697,10.4044 -8.34521,13.7898 l -4.64062,2.943 h -97.34406 c -93.71777,0 -97.48227,-0.071 -101.05422,-1.9027 -6.45838,-3.312 -11.21016,-10.3569 -11.21016,-16.62 0,-1.4227 -1.8,-5.5713 -4,-9.2189 -2.29614,-3.8071 -4.01294,-7.9369 -4.03037,-9.6953 -0.0167,-1.6847 -0.016,-22.1881 0.002,-45.5631 0.0175,-23.375 -0.33536,-43.0666 -0.78422,-43.759 -0.64247,-0.9911 -11.97291,-1.2039 -53.25153,-1 L -521,1169.5 l -0.5,47 -0.5,47 -3.75,6.9007 c -2.08173,3.8308 -3.75,8.3036 -3.75,10.0542 0,4.8288 -4.99578,11.8806 -10.20231,14.401 l -4.42914,2.1441 h -95.48793 -95.48793 z m 197.45391,-26.9836 c 1.86195,-0.8835 4.29246,-3.0741 5.40113,-4.868 1.98435,-3.2107 2.01542,-4.7399 1.9938,-98.1435 -0.0211,-91.047 -0.0987,-95.0511 -1.92142,-99.0657 -3.55059,-7.8204 3.55024,-7.3163 -103.05662,-7.3163 -105.97613,0 -99.19436,-0.4597 -102.99019,6.9808 -1.97151,3.8644 -2.00981,5.7577 -2.00981,99.3445 v 95.405 l 2.1613,2.7476 c 1.18872,1.5112 3.55122,3.5952 5.25,4.6312 2.96727,1.8094 6.79803,1.8836 97.43757,1.8872 84.57802,0 94.69946,-0.1627 97.73424,-1.6028 z m -116.55296,-26.3102 c -1.68223,-1.1137 -0.663,-3.4413 14.21985,-32.4747 4.8125,-9.3882 8.75,-17.454 8.75,-17.924 0,-0.47 -2.1375,1.043 -4.75,3.3623 -8.75606,7.7732 -17.08107,9.2759 -22.32692,4.03 -2.61957,-2.6195 -2.92146,-3.58 -2.90746,-9.25 0.009,-3.4798 0.71281,-9.0269 1.56493,-12.3269 2.46447,-9.5441 2.43643,-9.6763 -2.58055,-12.1569 -2.475,-1.2238 -5.175,-2.238 -6,-2.2539 -0.825,-0.016 -4.425,4.3136 -8,9.6209 -11.53309,17.1219 -22.31173,27.0087 -31.75219,29.125 -11.72333,2.6282 -20.71718,-6.093 -13.61145,-13.1987 2.93533,-2.9354 6.47185,-3.4159 8.36364,-1.1364 3.195,3.8497 11.69309,-0.1195 20.54758,-9.5972 7.31474,-7.8295 13.72624,-16.6507 12.97994,-17.8583 -0.92321,-1.4937 -5.33665,-1.2904 -11.46032,0.5282 -4.26513,1.2666 -5.51084,2.1424 -6.40074,4.5 -1.35319,3.585 -3.09563,3.7281 -5.25553,0.4317 -1.11906,-1.7079 -1.43713,-3.5512 -1.00774,-5.8401 1.35675,-7.2321 8.8493,-10.286 22.70551,-9.2546 l 8.60869,0.6408 8.81255,-11.7752 c 11.78973,-15.7534 18.54121,-23.364 25.97164,-29.2766 13.67912,-10.8848 27.49842,-14.6957 27.49842,-7.5833 0,1.2739 -4.47267,11.0917 -9.93926,21.8173 -21.11655,41.4315 -29.03392,64.6304 -22.38049,65.5777 4.87449,0.694 20.90142,-17.4412 28.43074,-32.1707 14.37875,-28.129 27.30341,-48.2642 36.05652,-56.1721 8.27434,-7.4753 16.9418,-9.4492 21.49577,-4.8952 2.25367,2.2536 2.51914,3.2138 2.14269,7.75 -1.06159,12.7919 -11.1915,26.3331 -39.40809,52.679 -9.85211,9.1989 -13.5543,15.1651 -15.35839,24.7506 -2.558,13.5912 6.80693,14.7331 16.98262,2.0709 3.02273,-3.7614 3.19241,-4.3407 2.13106,-7.2759 -2.29067,-6.3347 -0.93514,-15.0213 2.99726,-19.2071 2.54085,-2.7046 4.80601,-2.9309 8.77805,-0.8769 3.71774,1.9225 4.03054,3.0125 2.84284,9.9062 -1.62921,9.4564 1.5981,10.0397 11.78453,2.1297 3.2114,-2.4937 6.31259,-4.3763 6.89153,-4.1836 4.8661,1.6199 -5.32622,13.0635 -14.73489,16.5438 -3.18313,1.1775 -6.55813,2.144 -7.5,2.1477 -0.94187,0 -2.79223,1.5923 -4.11191,3.53 -3.6059,5.2946 -10.10044,11.2667 -14.6663,13.4865 -5.37122,2.6114 -12.97183,2.6009 -16.93428,-0.023 -1.65,-1.0928 -3.36231,-1.9898 -3.80513,-1.9934 -0.44282,0 -5.31581,9.2313 -10.82887,20.522 -5.91512,12.1142 -10.91366,21.0998 -12.19487,21.9221 -2.86595,1.8394 -10.78397,2.862 -12.64098,1.6326 z m 7.82534,-96.8333 c 4.02793,-8.1125 9.30823,-18.2165 11.73401,-22.4534 2.42577,-4.2369 4.4105,-7.9723 4.4105,-8.3009 0,-0.3286 -1.57455,0.6035 -3.499,2.0713 -6.52479,4.9767 -28.50443,33.7919 -28.4983,37.3611 0.002,1.2516 5.67245,5.4714 8.01329,5.9634 0.28379,0.06 3.81156,-6.529 7.8395,-14.6415 z m 72.30188,-18.75 c 6.22449,-8.0982 10.81501,-16.496 10.83286,-19.8174 0.0123,-2.289 -3.35569,-1.4656 -6.88165,1.6823 -4.67834,4.1769 -22.13561,33.9845 -22.09213,37.7215 0.0206,1.7743 10.02442,-9.0266 18.14092,-19.5864 z m 384.57617,139.2335 3.76646,-3.7664 0.26473,-95.2418 0.26473,-95.2417 -2.26473,-4.4333 c -4.50355,-8.8157 5.09856,-8.0613 -102.99737,-8.0922 -105.77628,-0.03 -99.83819,-0.3922 -103.50043,6.3088 -1.649,3.0173 -1.78429,9.6073 -2.0271,98.7331 -0.25607,93.9984 -0.2287,95.5512 1.74086,98.7591 1.10057,1.7926 3.46764,4.1572 5.26017,5.2547 3.20508,1.9625 4.85547,1.9914 99.49268,1.7409 l 96.23353,-0.2547 z M -272,1206.5127 c -9.7194,-4.565 -13.27795,-15.1428 -8.44966,-25.1167 3.36706,-6.9554 10.49328,-11.3985 25.44966,-15.8676 14.83174,-4.4318 13.87569,-3.6599 13.14863,-10.616 -0.62921,-6.02 -1.99276,-9.7745 -4.04833,-11.1471 -1.76835,-1.1807 -9.09091,-0.8747 -10.4003,0.4347 -0.67142,0.6714 -1.2,3.8909 -1.2,7.3089 0,7.3842 -1.24044,9.3083 -6.80727,10.5591 -14.01327,3.1486 -19.4896,-9.8583 -8.53201,-20.2644 5.64402,-5.36 11.67648,-7.1994 24.98914,-7.62 14.36032,-0.4536 21.35006,1.1214 27.00266,6.0845 6.61948,5.8119 7.30069,8.6752 7.32552,30.7908 0.0243,21.658 0.27763,22.6325 6.01377,23.1351 4.38228,0.384 5.12265,2.9841 1.84869,6.4925 -6.27546,6.7249 -20.66838,9.4826 -28.53774,5.468 -2.24643,-1.1461 -4.96839,-3.2973 -6.04881,-4.7804 l -1.9644,-2.6967 -3.42322,2.611 c -8.28564,6.3197 -19.3614,8.5143 -26.36633,5.2243 z m 26.35078,-13.6105 3.14922,-1.0979 v -10.4021 c 0,-5.7212 -0.23945,-10.4022 -0.53212,-10.4022 -2.05692,0 -7.50245,3.2285 -9.29998,5.5137 -3.4045,4.3281 -2.68416,14.1062 1.2318,16.721 1.45435,0.9711 1.7661,0.9521 5.45108,-0.3325 z m -67.50103,13.3707 c -18.91567,-0.2653 -22.23731,-0.5375 -22.74641,-1.8642 -0.90809,-2.3665 1.19097,-5.4087 3.73184,-5.4087 4.35678,0 4.52811,-1.5491 1.32692,-11.9974 l -3.03368,-9.9016 -13.95725,-0.3005 c -13.04781,-0.2809 -14.03896,-0.1702 -15.2113,1.6995 -2.11035,3.3656 -5.73882,15.3307 -5.13015,16.9169 0.3154,0.8219 2.73274,2.124 5.37187,2.8935 4.30414,1.255 4.79841,1.6974 4.79841,4.2944 v 2.8952 l -15.75,0.2754 -15.75,0.2754 v -2.9479 c 0,-2.4621 0.55671,-3.1315 3.37908,-4.063 1.8585,-0.6134 4.087,-1.8974 4.95223,-2.8535 2.05964,-2.2759 7.0436,-15.2262 17.19762,-44.6864 12.0392,-34.9297 14.3035,-40.4858 16.90203,-41.4738 3.00779,-1.1435 18.55639,-2.9683 20.13407,-2.3629 0.70049,0.2688 3.61358,6.867 6.47354,14.6627 12.17632,33.1903 26.10529,70.0515 27.46262,72.6763 0.89953,1.7395 2.84192,3.2859 5.03761,4.0105 3.20804,1.0588 3.54226,1.502 3.26739,4.3333 -0.35803,3.6879 2.78179,3.3649 -28.45644,2.9268 z m -24.89864,-40.5229 c -2.41163,-7.9369 -10.81694,-28.6419 -11.46478,-28.2416 -0.69479,0.4295 -9.98633,28.1916 -9.98633,29.8381 0,0.3594 4.98032,0.6535 11.06739,0.6535 11.01319,0 11.06404,-0.011 10.38372,-2.25 z m -77.27119,-10 c 0.21665,-0.6875 0.54069,-16.8821 0.72009,-35.988 0.37555,-39.997 0.83806,-38.2627 -8.62037,-32.325 -6.50394,4.083 -21.11138,9.0155 -32.11417,10.8441 l -7.33454,1.2189 -0.16847,22.5999 c -0.18317,24.5712 -0.47371,25.9001 -5.66246,25.9001 -1.51531,0 -3.25157,-0.5982 -3.85834,-1.3293 -0.71477,-0.8613 -1.19803,-9.3764 -1.37245,-24.1826 L -474,1099.6348 l -8,-1.3145 c -10.30706,-1.6935 -17.80608,-4.3565 -29.14995,-10.3515 -5.03247,-2.6596 -9.41997,-4.5655 -9.75,-4.2355 -0.33003,0.33 -0.60005,16.6875 -0.60005,36.35 0,27.6644 0.28272,35.8641 1.25,36.2544 0.6875,0.2774 24.48936,0.5399 52.89301,0.5834 40.49343,0.062 51.72805,-0.191 52.03691,-1.1711 z m -31.26252,-87.7777 c 10.27736,-2.871 16.97375,-6.2295 26.03517,-13.0575 13.92305,-10.4913 24.62831,-26.6352 29.09893,-43.8822 1.85802,-7.1679 2.10133,-10.2139 1.67423,-20.95966 -0.52123,-13.11383 -2.99464,-24.41605 -5.22313,-23.86701 -1.05199,0.25917 -23.18879,24.50597 -30.87334,33.81607 -6.96318,8.4361 -31.5996,35.9544 -36.46274,40.728 -5.19224,5.0966 -5.51542,5.25 -11.06173,5.25 -4.59457,0 -6.58372,-0.5628 -10.15901,-2.8742 -5.81013,-3.7562 -50.17858,-48.62577 -52.40538,-52.99728 -3.37787,-6.63119 0.32451,-13.95712 13.33614,-26.38836 8.36404,-7.99095 13.05717,-10.35038 18.54142,-9.32153 3.56772,0.66931 6.64421,3.35534 19.40239,16.93992 l 8.31965,8.85855 2.55569,-2.35855 c 1.40563,-1.2972 7.99853,-8.65855 14.65089,-16.35855 6.65237,-7.7 16.75207,-18.85622 22.44378,-24.79161 5.69171,-5.93538 10.17489,-11.31264 9.96262,-11.94946 -0.56722,-1.70164 -12.19561,-7.45901 -20.25298,-10.0275 -5.95493,-1.89829 -9.23943,-2.23143 -22,-2.23143 -13.01904,0 -15.92445,0.30675 -22,2.32277 -15.562,5.16386 -29.29792,14.3986 -38.5812,25.93838 -17.57558,21.84771 -22.30876,49.27501 -13.29861,77.06125 4.8301,14.8955 14.53671,27.9503 28.34126,38.1175 10.48232,7.7203 20.72855,12.0013 33.53855,14.0129 8.91848,1.4005 25.78982,0.4297 34.4174,-1.9805 z m -100.514,-23.816 c 0.28679,-0.464 -1.27254,-4.4015 -3.46517,-8.75 -4.98571,-9.8878 -7.67747,-18.4217 -9.36648,-29.6955 -0.72422,-4.834 -1.5528,-9.02518 -1.84127,-9.31365 -0.28847,-0.28848 -12.38334,-0.40973 -26.87749,-0.26945 -34.91002,0.33787 -34.94449,0.33666 -35.95476,-1.25813 -1.3393,-2.11417 -1.05548,-6.49418 0.50472,-7.78903 1.01746,-0.84441 9.82237,-1.08414 32.04443,-0.87244 29.9632,0.28544 30.65003,0.24763 31.0284,-1.7081 0.39405,-2.03683 5.26985,-24.14549 6.23274,-28.26158 l 0.52906,-2.26158 -39.86879,0.26158 L -634,954.5 l -0.26029,44.73914 -0.26028,44.73916 42.26028,0.272 c 23.24316,0.1496 42.79623,0.3795 43.45127,0.5108 0.65504,0.1314 1.42563,-0.1408 1.71242,-0.6048 z M -302.73978,999.13909 -303,954.5 h -38.66692 c -21.26681,0 -38.9584,0.2916 -39.31466,0.648 -0.35626,0.35639 0.47796,5.53139 1.85382,11.5 1.37586,5.9686 2.86745,12.652 3.31466,14.852 l 0.8131,4 32,0.53529 c 17.6,0.29441 32.13837,0.63191 32.3075,0.75 0.16912,0.11809 0.16912,2.12721 0,4.46471 l -0.3075,4.25 -19,0.72108 c -10.45,0.3966 -24.9625,0.45482 -32.25,0.12939 -7.30598,-0.32625 -13.2518,-0.20113 -13.25402,0.27892 -0.002,0.47884 -0.66511,4.94651 -1.4731,9.92821 -1.85989,11.4671 -4.82778,21.1022 -9.13838,29.6674 -1.86147,3.6988 -3.3845,6.9564 -3.3845,7.2392 0,0.5783 83.79475,1.2378 85.76022,0.6749 0.99444,-0.2848 1.20534,-9.7751 1,-45.00001 z m -324.39257,-74.13454 83.86764,-0.005 3.88236,-3.88235 3.88235,-3.88236 V 821.3516 c 0,-91.44871 -0.0857,-96.0444 -1.8541,-99.36765 -1.01976,-1.91642 -3.60726,-4.4895 -5.75,-5.71795 L -547,714.0329 h -93.5 -93.5 l -4,2.24862 c -8.0067,4.50101 -7.4967,-2.57375 -7.49845,104.01814 -0.002,101.26691 -0.17773,97.51596 4.78862,102.01045 3.33821,3.02104 7.22642,3.68187 18.70983,3.17986 6.05,-0.26448 48.74044,-0.48292 94.86765,-0.48542 z m -59.32197,-41.44951 c -0.65956,-0.79472 -1.05216,-2.48222 -0.87244,-3.75 0.24652,-1.73903 1.06342,-2.37635 3.32676,-2.59546 4.75357,-0.46017 8.25763,-2.1985 10.20125,-5.06071 1.6192,-2.38446 1.83362,-5.84305 2.14811,-34.64887 0.19215,-17.6 0.0274,-40.29933 -0.36603,-50.44296 l -0.7154,-18.44296 -2.80704,-2.80704 c -2.1426,-2.1426 -3.75612,-2.80704 -6.81658,-2.80704 -4.33994,0 -5.90635,-2.02365 -4.64431,-6 0.62311,-1.96326 1.51303,-2 48.44494,-2 40.20121,0 47.99874,0.22721 48.99502,1.42765 0.72275,0.87086 1.41131,7.01693 1.76551,15.75883 0.50011,12.34317 0.36037,14.51398 -1.00736,15.6491 -0.87342,0.72487 -2.58165,1.1709 -3.79607,0.99118 -1.76878,-0.26175 -2.53658,-1.53069 -3.85942,-6.37843 -2.01205,-7.3734 -3.79335,-10.03432 -9.10567,-13.60212 -5.2014,-3.4933 -9.09321,-4.02042 -26.93695,-3.64847 L -647,765.5 l -0.26781,23.62871 -0.26781,23.62871 2.26781,0.60764 c 1.24729,0.3342 5.99476,0.61378 10.54993,0.62129 11.50929,0.019 16.91085,-2.58141 18.66665,-8.98635 1.71251,-6.24706 2.81908,-8 5.05011,-8 1.24092,0 2.72948,0.57023 3.3079,1.26718 1.4562,1.75462 1.01639,41.30965 -0.47591,42.80195 -0.60511,0.60511 -2.1646,0.9496 -3.46553,0.76553 -1.90726,-0.26985 -2.59674,-1.27226 -3.56022,-5.17606 -2.73182,-11.06876 -5.59569,-12.81283 -20.43134,-12.44251 L -647,824.5 l -0.27005,21.30661 c -0.35022,27.6315 0.5406,29.89343 12.27005,31.15543 4.2672,0.45912 5.04789,0.87579 5.32676,2.843 0.71755,5.06167 -0.0221,5.19496 -28.82676,5.19496 -22.10941,0 -26.96334,-0.2509 -27.95432,-1.44496 z m 489.1206,39.76985 c 1.70914,-1.00369 3.94592,-3.39287 4.97062,-5.30929 1.77966,-3.32835 1.8631,-7.7078 1.8631,-97.78984 0,-90.62149 -0.0741,-94.45068 -1.89679,-98.02345 -1.11312,-2.18191 -3.545,-4.64436 -5.88615,-5.96016 L -202.27231,714 l -93.86384,0.002 c -106.28076,0.002 -98.80973,-0.575 -103.11385,7.96034 l -2.25,4.46189 0.011,85.03811 0.011,85.03811 4.73897,-5.17888 c 2.60643,-2.84839 5.72189,-5.66089 6.92323,-6.25 3.32248,-1.62928 11.521,-1.3033 14.34323,0.57031 4.06499,2.69862 19.00702,17.65104 20.54463,20.55891 2.21239,4.18398 1.78163,9.81481 -1.07212,14.01447 -1.375,2.0235 -2.5,3.92498 -2.5,4.22552 0,0.54664 137.04332,1.41294 150.77938,0.95313 4.88058,-0.16338 8.30341,-0.84504 10.3869,-2.06857 z m -72.1529,-58.51658 c -2.59727,-1.33626 -5.75559,-4.1343 -7.5,-6.64445 -2.76234,-3.97491 -3.01338,-5.02935 -3.01338,-12.65718 0,-7.8061 0.1914,-8.55885 3.09283,-12.16386 6.04127,-7.50625 11.05295,-9.71065 25.91692,-11.39961 4.63529,-0.5267 9.57764,-1.48153 10.983,-2.12186 5.34888,-2.43711 3.65304,-9.97151 -2.5511,-11.33417 -6.67632,-1.46636 -15.94165,1.49566 -15.94165,5.09638 0,3.19324 -3.07509,4.41644 -11.10281,4.41644 -9.47481,0 -10.01149,-0.62372 -7.47108,-8.68283 3.36565,-10.67708 11.79685,-15.97701 27.07389,-17.0189 14.96795,-1.02082 26.82936,3.80056 30.81214,12.5244 1.91342,4.19113 2.19678,7.06816 2.72592,27.67733 0.38735,15.08635 1.03366,24.12254 1.87842,26.26251 2.22537,5.63736 1.31405,6.23749 -9.47196,6.23749 h -9.61825 l -1.07897,-2.85852 -1.07897,-2.85852 -6.05454,3.60852 c -5.48988,3.27198 -6.85004,3.63727 -14.58417,3.91683 -7.32066,0.26462 -9.16554,-0.0189 -13.01624,-2 z m 25.49458,-14.37911 c 5.07944,-2.41035 6.42994,-4.54164 7.13159,-11.25473 0.73517,-7.03371 1.23801,-6.75228 -8.4307,-4.7184 -9.09029,1.9122 -12.05856,3.35263 -13.78385,6.68896 -1.96069,3.79157 -1.78516,6.49481 0.575,8.85497 2.48638,2.48638 9.7217,2.70043 14.50796,0.4292 z m -135.16674,14.07835 c -1.21753,-0.89027 -0.75506,-2.82938 2.98847,-12.53041 2.43589,-6.31243 6.49776,-17.55214 9.02636,-24.97714 9.54149,-28.01766 20.51752,-57.3071 21.80635,-58.19001 1.45382,-0.99595 22.4136,-0.56732 23.46069,0.47977 0.35253,0.35253 4.11237,9.99405 8.3552,21.4256 8.86186,23.87669 19.81603,53.19363 24.16372,64.67 1.77058,4.67372 2.62065,8.25198 2.08713,8.7855 -0.49508,0.49508 -5.80373,0.77167 -11.797,0.61464 l -10.89686,-0.2855 -3.18887,-8.8923 c -1.75388,-4.89077 -3.78682,-9.28224 -4.51764,-9.75882 -1.39047,-0.90676 -32.10181,-0.4162 -33.64479,0.53741 -0.48813,0.30169 -1.91556,4.15899 -3.17204,8.57178 -1.25649,4.4128 -2.84965,8.49228 -3.54036,9.06552 -1.70398,1.41418 -19.30685,1.81735 -21.13036,0.48396 z m 55.0888,-38.39432 c 0.64633,-1.04578 -8.86662,-29.08772 -9.97363,-29.39993 -0.83961,-0.23679 -10.3183,25.76455 -10.40295,28.5367 -0.0474,1.55289 1.06625,1.75 9.88754,1.75 5.46754,0 10.18761,-0.39905 10.48904,-0.88677 z m -189.12329,83.86274 c 8.71191,-4.69915 22.80129,-9.66455 30.08431,-10.60237 2.80993,-0.36183 6.11512,-1.03036 7.34487,-1.48563 l 2.23591,-0.82776 0.26409,-31.7801 L -473,833.5 l 3.88178,-0.31822 c 2.13498,-0.17502 4.34646,0.14646 4.9144,0.7144 0.67626,0.67626 0.95422,11.88371 0.80545,32.47498 l -0.22718,31.44235 2.81277,0.53972 c 1.54703,0.29684 4.83778,0.81945 7.31278,1.16136 6.96254,0.96183 19.72093,5.33542 28.03581,9.6107 4.1447,2.13109 8.0378,3.87471 8.65135,3.87471 1.73927,0 2.46598,-18.83571 2.12198,-55 L -415,825.5 l -53.25,-0.25876 -53.25,-0.25877 v 44.50877 c 0,24.47982 0.19045,44.50876 0.42322,44.50876 0.23276,0 3.78035,-1.81082 7.88351,-4.02403 z m 40.72845,368.08973 c -1.57188,-2.9371 -1.41452,-98.2864 0.16482,-99.8657 1.69804,-1.698 6.31524,-1.489 7.84578,0.3552 1.81263,2.184 1.73414,97.8001 -0.0821,99.9885 -1.775,2.1388 -6.68655,1.8427 -7.92852,-0.478 z M -754.93326,995.4772 c -1.30321,-0.64495 -2.18081,-2.19231 -2.37551,-4.18844 -0.58481,-5.99577 -1.11901,-5.9428 53.80877,-5.33579 l 49.5,0.54703 0.31822,3.88178 c 0.17502,2.13498 -0.16573,4.36573 -0.75723,4.95723 -1.4556,1.4556 -97.56515,1.58776 -100.49425,0.13819 z m 473.10273,0.69961 c -2.18901,-0.42412 -3.04243,-4.06564 -1.74968,-7.46584 L -282.5495,986 l 40.77475,-0.24958 c 65.01124,-0.39793 59.1826,-0.5878 61.27245,1.99593 1.88353,2.32864 1.69639,5.43272 -0.43414,7.2009 -1.11232,0.92315 -96.47719,2.08532 -100.89409,1.22956 z M -472.83333,803.33333 C -473.2,802.96667 -473.5,780.72381 -473.5,753.90476 c 0,-42.99567 0.18583,-48.94773 1.57143,-50.33333 1.95144,-1.95144 4.45313,-2.0055 6.98744,-0.15098 1.87153,1.36952 1.94562,3.13532 2.06636,49.25 0.0689,26.30625 -0.0739,48.61705 -0.31739,49.57955 -0.33487,1.32401 -1.48104,1.75 -4.70856,1.75 -2.34627,0 -4.56595,-0.3 -4.93261,-0.66667 z"
         id="path63" /><path
         style="fill:#223f3b"
         d="m -738,1294.4972 c -5.96323,-2.1094 -11.17975,-8.1788 -12.05691,-14.0281 -0.39422,-2.6289 -2.34269,-8.1974 -4.32993,-12.3744 L -758,1260.5 l -0.2789,-95.7858 c -0.18689,-64.183 0.0651,-97.0632 0.76359,-99.6573 1.8002,-6.6855 6.96649,-13.2575 13.01531,-16.5569 l 5.5,-3 46,-0.2287 c 25.3,-0.1258 46.34204,-0.2383 46.76009,-0.25 0.41805,-0.012 0.64305,-20.6088 0.5,-45.7713 L -646,953.5 l -44,-0.0361 c -30.10053,-0.0247 -44.80755,-0.38852 -46.55637,-1.15163 -6.6208,-2.88904 -12.86521,-11.16812 -12.92167,-17.13205 -0.0121,-1.27591 -1.33437,-4.22736 -2.93843,-6.55878 -6.34346,-9.2199 -6.15045,-5.56974 -5.85328,-110.69526 0.2675,-94.63013 0.28731,-95.4641 2.37541,-99.97695 2.87642,-6.2166 8.07507,-11.89876 12.88576,-14.08421 3.79043,-1.72195 9.36903,-1.82106 102.50858,-1.82106 111.14485,0 102.66682,-0.60774 110.34717,7.91022 7.3346,8.1345 7.09627,6.34236 7.65283,57.54586 l 0.5,46 53.64862,0.25864 53.64862,0.25863 0.40191,-4.75863 c 0.22106,-2.61725 0.52432,-23.43364 0.67391,-46.25864 0.24349,-37.15057 0.45743,-41.91922 2.04131,-45.5 2.6356,-5.9585 6.52296,-10.04072 12.30544,-12.92225 L -394.10731,702 h 98.48793 c 97.8547,0 98.51569,0.0134 102.80487,2.08979 4.8167,2.33173 9.33899,7.2933 12.40602,13.6111 1.99575,4.11107 2.05149,6.23031 2.60673,99.11216 0.61487,102.85521 0.69561,101.02069 -4.82945,109.73279 -1.62879,2.56834 -3.37889,6.87093 -3.88911,9.56131 -1.25925,6.63999 -3.29744,10.2707 -7.61401,13.56311 -3.1726,2.41986 -4.86278,2.86116 -13.25105,3.45982 -5.28804,0.37741 -25.86401,0.49287 -45.72437,0.2566 -28.46197,-0.33861 -36.33383,-0.15959 -37.16776,0.84524 -1.08338,1.30539 -1.08491,89.23898 -0.002,90.32228 0.28968,0.2897 21.17097,0.621 46.40288,0.7363 L -198,1045.5 l 4.80509,2.3659 c 5.37701,2.6474 11.58906,10.123 13.82271,16.6341 1.12582,3.2818 1.3722,21.3266 1.3722,100.5 v 96.5 l -3.25,6.8883 c -1.7875,3.7886 -3.25,8.0666 -3.25,9.5066 0,7.1963 -3.5101,12.7664 -10.21016,16.2024 -3.57156,1.8316 -7.32793,1.9027 -100.55422,1.9027 h -96.84406 l -4.55167,-2.8866 c -4.89721,-3.1057 -8.83989,-9.5657 -8.83989,-14.4839 0,-1.5065 -1.8,-5.7235 -4,-9.3711 -2.2,-3.6477 -4.04398,-7.5605 -4.09772,-8.6953 -0.0538,-1.1347 -0.0148,-20.7516 0.0866,-43.5932 0.10136,-22.8415 -0.13048,-43.2079 -0.51519,-45.2586 l -0.69948,-3.7286 -53.63709,0.2587 L -522,1168.5 l -0.5,47.5899 -0.5,47.5898 -3.33567,5.3644 c -1.96526,3.1605 -3.70243,7.6179 -4.22839,10.8495 -1.02011,6.2678 -4.58528,11.3765 -9.94539,14.2511 -3.30156,1.7707 -7.7931,1.8533 -98.47495,1.8114 -79.28662,-0.037 -95.67776,-0.2781 -99.0156,-1.4589 z m 195.48007,-26.2488 c 1.91403,-0.9616 4.51024,-3.2904 5.76934,-5.175 l 2.28928,-3.4266 -0.26935,-96.0734 c -0.25317,-90.3048 -0.37733,-96.2712 -2.06789,-99.3676 -0.9892,-1.8118 -3.2392,-4.1764 -5,-5.2547 -3.12953,-1.9164 -5.37252,-1.9547 -99.84669,-1.7058 -95.05815,0.2505 -96.68154,0.2875 -98.85641,2.2547 -1.21614,1.1 -3.06328,3.6696 -4.10476,5.7102 -1.81871,3.5634 -1.89359,7.4589 -1.89359,98.5156 0,107.2715 -0.60314,99.4432 8.01262,103.9993 l 4.30195,2.2749 h 94.09271 c 87.58483,0 94.33342,-0.1224 97.57279,-1.75 z m -116.41545,-28.1438 c -0.36952,-0.5979 5.08977,-12.4254 12.13176,-26.2832 7.04199,-13.8579 12.95362,-25.5618 13.13695,-26.0088 0.86837,-2.117 -2.03571,-0.321 -7.55019,4.6693 -6.78219,6.1375 -9.60899,7.5181 -15.39369,7.5181 -2.89273,0 -4.65106,-0.6707 -6.4349,-2.4545 -2.1356,-2.1356 -2.45455,-3.3585 -2.45455,-9.411 0,-4.1478 0.80225,-9.5156 1.9871,-13.2954 1.0929,-3.4865 1.9929,-6.9264 2,-7.6441 0.0127,-1.284 -9.78755,-6.195 -12.36249,-6.195 -0.7251,0 -4.6383,4.8375 -8.696,10.75 -13.35241,19.4559 -24.4715,28.4808 -35.08966,28.4808 -9.01484,0 -13.78808,-6.4627 -8.74111,-11.8349 2.72069,-2.8961 5.27016,-3.0382 8.52822,-0.4754 4.44472,3.4962 10.48185,0.133 22.14835,-12.3385 7.6613,-8.19 12.55744,-15.2748 11.84286,-17.137 -0.73078,-1.9044 -5.87105,-1.8558 -12.51864,0.1183 -3.89142,1.1557 -5.69915,2.3276 -6.9315,4.4937 -1.98519,3.4894 -2.72573,3.6363 -4.22348,0.8377 -1.4239,-2.6606 -0.43902,-8.1431 1.82591,-10.1644 3.13665,-2.7992 10.19407,-3.9922 19.73044,-3.3353 l 9,0.6199 8.48277,-11.7574 c 9.76208,-13.5307 24.08369,-28.778 31.91305,-33.9758 5.76844,-3.8296 16.16893,-7.5778 18.5216,-6.675 0.78537,0.3014 1.65544,1.1408 1.9335,1.8654 0.27806,0.7246 -4.21856,10.6675 -9.99248,22.0953 -15.48992,30.6578 -25.35844,54.7627 -25.35844,61.9408 0,3.3034 2.089,6.4918 4.25334,6.4918 0.61077,0 5.8912,-4.8375 11.73429,-10.75 9.47674,-9.5893 11.24473,-11.9679 16.37459,-22.0301 14.29606,-28.0417 27.9719,-49.6753 35.97095,-56.9019 10.96631,-9.9074 22.66683,-9.5609 22.66683,0.6713 0,10.9453 -7.45316,21.8132 -30.60296,44.624 -19.62016,19.3328 -22.65473,23.6046 -24.21847,34.0932 -0.98306,6.5936 -0.441,9.0754 2.38692,10.9284 3.60464,2.3618 6.80606,1.0478 13.64117,-5.5992 5.42708,-5.2776 5.9788,-6.1807 5.32231,-8.7119 -1.87813,-7.2411 -1.66487,-12.7598 0.66945,-17.3238 2.78687,-5.4488 6.15073,-6.381 10.12209,-2.8049 2.45229,2.2082 2.5185,2.5533 1.57868,8.2272 -0.53953,3.2572 -0.75169,6.5197 -0.47146,7.25 1.13502,2.9578 6.8606,1.0814 13.95977,-4.5749 7.6924,-6.129 9.03588,-3.0656 1.73976,3.967 -4.6884,4.519 -13.64295,8.9356 -18.11673,8.9356 -1.13093,0 -3.12727,1.7628 -4.87788,4.3072 -3.79302,5.513 -10.41439,11.4947 -14.71097,13.29 -5.53897,2.3143 -12.76519,1.8261 -16.23931,-1.0972 -1.6341,-1.375 -3.25678,-2.5 -3.60598,-2.5 -0.34919,0 -5.13824,9.1125 -10.64234,20.25 -5.5041,11.1375 -11.00344,21.2296 -12.22075,22.427 -2.51633,2.475 -11.06379,4.183 -12.14868,2.4276 z m 8.55391,-96.3546 c 4.47167,-8.9375 10.09932,-19.6692 12.50589,-23.8483 2.40657,-4.179 4.37558,-7.8915 4.37558,-8.25 0,-4.7021 -17.75461,14.1526 -28.81977,30.6054 -8.0964,12.0386 -7.96425,11.2472 -2.45588,14.7061 2.62661,1.6493 5.1105,3.0073 5.51976,3.0178 0.40926,0.01 4.40275,-7.2935 8.87442,-16.231 z m 72.1755,-18.25 c 9.04439,-12.0715 13.28825,-22.5 9.15631,-22.5 -3.67635,0 -7.64472,3.483 -12.80528,11.2391 -6.16902,9.2718 -18.66975,32.6995 -18.599,34.8566 0.0635,1.9357 14.94073,-13.8428 22.24797,-23.5957 z m 380.68939,142.6486 c 1.89872,-1.0183 4.3667,-3.0762 5.4844,-4.5731 2.00472,-2.6848 2.03592,-4.0008 2.30907,-97.3985 0.30783,-105.2569 0.62469,-99.9832 -6.3766,-106.1304 l -3.46988,-3.0466 -59.71521,-0.063 c -32.84336,-0.035 -76.1402,-0.01 -96.2152,0.057 -40.66333,0.1341 -40.38082,0.089 -44.46462,7.0408 -2.00902,3.4197 -2.03538,4.7092 -2.03538,99.5629 0,106.8509 -0.49215,99.4933 6.95363,103.957 l 4.04637,2.4258 95.0156,0.01 c 90.57469,0.01 95.17696,-0.077 98.46782,-1.8419 z m -74.533,-62.5552 c -3.61155,-1.5731 -8.19884,-6.7428 -9.07273,-10.2247 -0.34195,-1.3624 -0.40617,-4.7205 -0.14272,-7.4623 0.95216,-9.9093 9.5515,-16.5969 28.28719,-21.9987 13.01311,-3.7518 13.03739,-3.7785 11.95073,-13.1413 -0.92213,-7.9451 -3.50486,-10.7664 -9.85601,-10.7664 -2.53104,0 -5.09055,0.6165 -5.89368,1.4197 -0.81719,0.8171 -1.67577,4.4746 -2.02317,8.6184 -0.33194,3.9593 -0.8152,7.4104 -1.07391,7.6691 -1.47826,1.4783 -9.18855,2.2623 -12.26452,1.2471 -8.12974,-2.683 -7.12429,-13.4917 1.86047,-20.0002 6.31715,-4.5761 13.60024,-6.3368 25.77793,-6.2319 11.44157,0.099 17.0338,1.5407 22.68238,5.8491 6.34354,4.8385 6.76429,6.6046 7.31762,30.7169 0.54256,23.6429 0.5484,23.6649 6.28138,23.6965 3.53404,0.019 4.52519,2.4661 2.0899,5.159 -3.26603,3.6114 -9.55256,6.1331 -16.54,6.6347 -5.519,0.3962 -7.4723,0.09 -11.32966,-1.7776 -2.56351,-1.241 -5.14731,-3.3238 -5.74179,-4.6286 -1.35559,-2.9752 -2.11538,-2.9655 -6.10499,0.077 -8.02389,6.1201 -19.01127,8.2768 -26.20442,5.1437 z m 29.29958,-12.8053 c 0.86008,-0.7108 1.25,-4.4261 1.25,-11.9105 0,-12.2149 -0.12939,-12.3827 -6.88708,-8.9352 -5.70833,2.9122 -7.41785,6.1652 -6.91235,13.1536 0.55172,7.6275 2.77794,10.3171 7.76802,9.3848 1.94228,-0.3629 4.09391,-1.1246 4.78141,-1.6927 z m -69.75,12.2572 c -21.65157,-0.5247 -22.5,-0.6207 -22.5,-2.5453 0,-1.5155 0.76927,-2.0746 3.17553,-2.3078 5.30757,-0.5145 5.51973,-1.7707 2.14969,-12.7282 -1.68545,-5.4802 -3.38865,-10.3195 -3.78487,-10.754 -0.54985,-0.603 -20.92713,-1.1474 -28.70293,-0.7669 -1.19796,0.059 -5.84173,11.217 -6.90005,16.5799 -0.71478,3.622 1.32362,5.86 6.56263,7.2054 2.48561,0.6383 3.5,1.46 3.5,2.8352 0,1.8291 -0.8308,1.9364 -15,1.9364 -12.63151,0 -15,-0.2356 -15,-1.4921 0,-0.8207 1.575,-2.2345 3.5,-3.1419 6.72114,-3.1681 7.09555,-3.9784 22.95017,-49.6732 11.82869,-34.0917 13.29403,-37.7243 15.73414,-39.0054 0.99863,-0.5243 5.62167,-1.4589 10.27342,-2.0769 6.66934,-0.886 8.70063,-0.8579 9.60648,0.1329 0.63181,0.6911 3.21467,6.8816 5.73969,13.7566 15.01178,40.8734 27.09476,72.6846 28.07154,73.9049 0.61851,0.7727 2.61598,2.0283 4.43883,2.7903 2.54097,1.0621 3.24095,1.9009 3,3.5951 -0.37028,2.6035 1.9451,2.452 -26.81427,1.755 z m -24.02866,-37.2953 c -0.0571,-2.4912 -11.71345,-32.164 -12.77382,-32.5175 -0.9905,-0.3302 -11.19752,29.2563 -11.19752,32.4575 0,1.0072 2.77353,1.31 12,1.31 8.94862,0 11.99271,-0.3179 11.97134,-1.25 z m -78.46958,-10.7529 c 0.84331,-1.3644 1.85632,-69.4343 1.07939,-72.5298 -0.34059,-1.357 -1.07171,-2.4673 -1.62471,-2.4673 -0.553,0 -3.94281,1.8551 -7.53289,4.1224 -3.59009,2.2674 -10.56428,5.4207 -15.49819,7.0073 -9.00259,2.8951 -21.56374,5.2118 -23.10233,4.2609 -0.45267,-0.2797 -0.82992,-2.8446 -0.83834,-5.6996 -0.0209,-7.091 -0.70836,-7.8746 -6.58144,-7.5021 L -474,1084.5 l -0.29569,6.75 c -0.3384,7.725 0.37823,7.3877 -11.0771,5.2146 -9.34837,-1.7733 -18.91772,-5.4664 -28.01991,-10.8136 -3.51598,-2.0655 -7.00348,-3.5211 -7.75,-3.2346 -1.86865,0.7171 -2.02049,72.5204 -0.1573,74.3836 1.55729,1.5573 105.34219,1.7498 106.30176,0.1971 z m -32.20584,-87.9206 c 21.3339,-5.5228 39.42292,-20.3071 50.07063,-40.923 6.32127,-12.2391 8.64635,-21.8847 8.57951,-35.59184 -0.0557,-11.41966 -3.20548,-27.48147 -5.54197,-28.2603 -1.00813,-0.33604 -14.83134,14.53762 -29.62815,31.87966 -12.146,14.23528 -29.32648,33.41708 -36.78398,41.06898 l -7.55313,7.75 h -5.52363 c -4.37942,0 -6.44458,-0.5938 -9.96942,-2.8663 -5.63258,-3.6315 -49.09957,-47.54998 -51.30114,-51.83404 -2.15878,-4.20081 -2.07465,-6.53646 0.41097,-11.40866 2.96976,-5.82122 16.34158,-19.42077 21.5971,-21.96492 8.01045,-3.8778 10.03981,-2.88675 24.13095,11.78453 l 12.28365,12.78939 6.71635,-7.00125 c 3.69399,-3.85069 10.76466,-11.72569 15.7126,-17.5 4.94795,-5.77431 13.38545,-15.07993 18.75,-20.67916 5.36456,-5.59922 9.75374,-10.87386 9.75374,-11.72142 0,-1.79491 -13.43019,-8.52677 -22.5,-11.27808 -4.7065,-1.42771 -9.23376,-1.80772 -21,-1.76271 -13.50907,0.0517 -15.79516,0.32309 -23,2.73071 -23.06076,7.70615 -41.64373,24.63766 -50.14753,45.69096 -8.00203,19.81103 -8.36567,38.49133 -1.14741,58.94225 4.15911,11.7836 8.15283,18.3967 16.27158,26.9436 14.22372,14.9739 29.35962,22.923 48.52336,25.4835 6.93239,0.9263 23.62182,-0.2853 31.29592,-2.2719 z m -98.36013,-24.5368 c 0.55957,-0.3459 -0.29309,-2.7537 -2.00072,-5.6498 -6.51208,-11.0445 -10.07284,-22.1733 -11.93452,-37.3 -1.2646,-10.27521 -0.0956,-23.22269 3.20798,-35.53225 1.11557,-4.15671 2.25184,-8.80024 2.52505,-10.31896 l 0.49674,-2.76132 -40.86516,0.26132 L -635,953.5 l -0.26251,45 c -0.21615,37.0537 -0.0219,45.1766 1.10008,46 1.46957,1.0785 86.85547,1.1168 88.59822,0.04 z m 242.81264,0.6369 c 0.9666,-0.6137 1.2564,-10.8907 1.28378,-45.52548 0.0194,-24.60304 -0.24438,-45.1854 -0.58627,-45.73859 -0.6924,-1.12033 -78.41472,-1.16789 -80.22498,-0.0491 -0.71141,0.43968 -0.25108,3.44882 1.39913,9.14591 1.35265,4.66986 2.97335,12.8709 3.60154,18.22455 2.07732,17.70341 -2.12595,40.43291 -10.28053,55.59291 -2.16761,4.0297 -3.9411,7.5124 -3.9411,7.7392 0,0.2269 19.2375,0.5348 42.75,0.6843 23.5125,0.1495 43.2,0.3724 43.75,0.4954 0.55,0.123 1.56179,-0.1331 2.24843,-0.5691 z m -168.67833,-13.2265 c 1.58336,-1.1275 6.36082,-6.19 10.61657,-11.25 4.25575,-5.0601 13.22647,-15.2999 19.93493,-22.75522 6.70846,-7.45532 19.10047,-21.47184 27.5378,-31.14782 8.43733,-9.67598 21.6406,-24.66699 29.3406,-33.31335 17.46182,-19.60797 17.7803,-20.0252 17.04768,-22.33348 C -368.01666,907.79677 -380.09861,897 -382.7869,897 c -1.87047,0 -5.40878,3.17534 -14.76459,13.25 -6.76752,7.2875 -15.65912,17.3 -19.7591,22.25 -8.02954,9.69424 -43.04444,49.09592 -52.40505,58.97052 l -5.71563,6.02948 -14.79647,-14.75 c -8.34693,-8.32072 -15.60045,-14.75 -16.64095,-14.75 -2.4364,0 -16.63131,13.81403 -16.63131,16.18507 0,1.03056 8.1155,10.34952 18.35858,21.08103 20.44372,21.4185 28.00363,28.7339 29.69421,28.7339 0.62616,0 2.43395,-0.9225 4.01731,-2.0499 z M -636.78663,926 h 93.54979 l 4.3831,-4.3831 4.3831,-4.3831 -0.26468,-97.04385 c -0.2623,-96.1729 -0.28316,-97.06919 -2.32322,-99.8669 -1.1322,-1.55268 -4.04005,-3.83555 -6.46189,-5.07305 L -547.92378,713 H -640.5 -733.07622 l -4.40335,2.25 c -2.42184,1.2375 -5.32969,3.52037 -6.46189,5.07305 -2.04001,2.79764 -2.06092,3.69525 -2.32316,99.73094 l -0.26462,96.90789 3.63282,4.0211 c 3.50451,3.87906 8.46211,6.2747 11.22821,5.42576 0.73248,-0.22481 43.42919,-0.40874 94.88158,-0.40874 z m -49.03096,-42.65093 c -0.37533,-0.37532 -0.68241,-1.7324 -0.68241,-3.01574 0,-1.96504 0.51297,-2.33392 3.25,-2.33707 3.85725,-0.004 9.09984,-2.97312 10.93618,-6.19275 1.79066,-3.13955 1.72536,-99.18865 -0.0704,-103.52396 -1.47502,-3.56101 -4.48848,-5.51146 -9.6158,-6.22382 -3.4518,-0.47957 -4,-0.89835 -4,-3.05573 v -2.5 l 47.77766,-0.25971 c 42.67854,-0.232 47.84205,-0.0919 48.38105,1.31271 0.33187,0.86483 0.65692,7.9567 0.72234,15.75971 L -589,787.5 l -2.57968,0.29999 c -2.3745,0.27612 -2.67737,-0.13651 -3.80783,-5.18792 -1.60494,-7.17163 -4.53546,-11.36036 -10.55096,-15.08095 l -4.90074,-3.03112 -17.95992,-0.34943 c -14.27645,-0.27777 -18.13532,-0.0727 -18.81509,1 -0.47033,0.74219 -0.86205,11.7961 -0.87047,24.56425 -0.0182,27.6513 -1.21324,25.62697 14.82956,25.12114 13.38602,-0.42207 16.10175,-1.95118 18.84244,-10.60941 1.5695,-4.95827 2.14809,-5.72655 4.31269,-5.72655 h 2.5 v 20.34423 c 0,11.18933 -0.27892,20.79611 -0.61983,21.3484 -1.18687,1.92281 -4.33936,0.28614 -5.20516,-2.70235 -1.8378,-6.34349 -4.90253,-11.29712 -8.0026,-12.93487 -2.55549,-1.35005 -5.40874,-1.61563 -14.67241,-1.36569 L -648,823.5 l -0.26946,21.73554 c -0.30269,24.41537 0.24819,27.25687 5.95928,30.73883 1.96588,1.19855 5.06313,2.01967 7.6266,2.02189 4.11813,0.004 4.30189,0.13008 4,2.75374 L -631,883.5 l -27.06759,0.26574 c -14.88718,0.14616 -27.37468,-0.0413 -27.75,-0.41667 z m 488.48875,41.03237 c 1.46914,-0.74319 3.71914,-2.82055 5,-4.61635 L -190,916.5 v -96.57784 -96.57784 l -2.7328,-3.58288 c -5.46511,-7.16514 -0.34132,-6.84743 -105.44417,-6.53837 -93.34179,0.27447 -94.20145,0.29521 -96.93821,2.33872 -1.51868,1.13398 -3.68905,3.30429 -4.82303,4.8229 -2.04059,2.73272 -2.06458,3.66002 -2.33309,90.165 -0.21851,70.3969 -0.0239,87.30122 1,86.87623 0.69922,-0.29021 2.7429,-2.52291 4.54151,-4.96156 1.79862,-2.43865 4.72332,-5.18533 6.49934,-6.10375 3.75423,-1.94139 10.48925,-2.08758 13.87436,-0.30115 3.39556,1.79193 18.7854,16.95024 20.44853,20.14088 2.3881,4.58146 1.77645,9.90404 -1.67791,14.60124 -2.26016,3.07335 -2.72826,4.33018 -1.75,4.69874 1.57126,0.59198 150.69655,1.18286 155.83547,0.61746 1.925,-0.21179 4.70202,-0.99314 6.17116,-1.73634 z m -71.99885,-60.4752 c -5.07908,-2.57273 -8.88439,-8.04171 -10.09161,-14.50368 -2.38346,-12.75803 6.13912,-22.98501 21.13796,-25.36523 15.15907,-2.40565 18.20503,-3.08492 20.46073,-4.56292 3.01814,-1.97755 2.98071,-5.59612 -0.0948,-9.16865 -2.14698,-2.4939 -3.06397,-2.79975 -8.25,-2.75166 -8.65753,0.0803 -10.69158,0.89254 -12.93883,5.16695 l -1.98677,3.77895 -8.20447,0.29044 c -7.43958,0.26337 -8.20448,0.11682 -8.20448,-1.57186 0,-3.96037 3.40153,-11.55344 6.61545,-14.76736 6.61947,-6.61947 22.87047,-9.29894 35.86701,-5.91377 8.25457,2.15004 11.99307,4.75878 14.6893,10.25026 2.16249,4.4044 2.34769,6.24773 2.83445,28.21229 0.35314,15.93533 0.91881,24.20312 1.75729,25.68426 2.80279,4.95107 2.03435,5.41158 -8.5135,5.10195 L -234,863.5 l -0.31642,-2.75 c -0.17403,-1.5125 -0.55621,-2.75 -0.84927,-2.75 -0.29307,0 -3.26561,1.6875 -6.60564,3.75 -5.60261,3.45967 -6.73689,3.77316 -14.65072,4.04918 -7.22665,0.25205 -9.2597,-0.0462 -12.90564,-1.89294 z m 25.30518,-12.46258 c 5.733,-2.72049 7.50608,-5.46185 8.17655,-12.64181 0.33493,-3.5867 0.21229,-6.75673 -0.27254,-7.04451 -1.88275,-1.11757 -19.72478,4.13139 -22.09292,6.49953 -6.30947,6.30947 -2.72573,14.74313 6.26484,14.74313 2.55438,0 6.12021,-0.70035 7.92407,-1.55634 z m -134.32063,12.65328 c -0.76161,-0.47069 1.11376,-6.6659 5.86162,-19.36371 3.83983,-10.26936 6.98152,-19.08508 6.98152,-19.59049 0,-1.65508 19.08564,-53.541 20.17907,-54.85851 1.45168,-1.74917 19.79876,-1.77764 22.05982,-0.0342 0.89164,0.6875 7.98171,18.35 15.75573,39.25 7.77401,20.9 15.40302,41.375 16.95335,45.5 1.55033,4.125 2.6197,7.8375 2.37639,8.25 -0.78647,1.33332 -19.97827,0.87787 -21.06881,-0.5 -0.54413,-0.6875 -2.00422,-4.34249 -3.24464,-8.12219 -3.45696,-10.53383 -3.12353,-10.37198 -20.60572,-10.00194 -8.19786,0.17352 -15.90322,0.32868 -17.12305,0.34481 -1.91409,0.0253 -2.57919,1.22774 -4.8561,8.77932 -1.45104,4.8125 -2.99142,9.12842 -3.42308,9.59093 -0.97454,1.04422 -18.3112,1.70463 -19.8461,0.75601 z m 55.39021,-37.35901 c 0.61801,-1.61051 -9.93902,-32.83574 -11.11247,-32.8681 -1.05694,-0.0291 -11.30678,28.68035 -11.38183,31.88017 -0.0516,2.20055 0.18969,2.25 10.97861,2.25 7.95891,0 11.16628,-0.35152 11.51569,-1.26207 z m -195.70144,87.38873 c 5.00441,-3.5319 14.66034,-7.88875 24.33897,-10.98197 22.32827,-7.13596 47.7588,-4.41795 69.73814,7.45359 3.76932,2.0359 7.51472,3.44783 8.3231,3.13762 0.80838,-0.3102 1.75877,-2.00893 2.11197,-3.77495 0.93319,-4.66593 0.75921,-83.22838 -0.18761,-84.71981 -0.62943,-0.99147 -12.14892,-1.20387 -54.23469,-1 L -522,824.5 l -0.26009,45.75 c -0.14305,25.1625 0.0125,45.75 0.34563,45.75 0.33315,0 1.80019,-0.843 3.26009,-1.87334 z"
         id="path62" /></g></g></svg>
