<?xml version="1.0" encoding="UTF-8" standalone="no"?>
<!-- Created with Inkscape (http://www.inkscape.org/) -->

<svg
   width="300"
   height="300"
   viewBox="0 0 300 300"
   version="1.1"
   id="svg1"
   xml:space="preserve"
   xmlns="http://www.w3.org/2000/svg"
   xmlns:svg="http://www.w3.org/2000/svg"><defs
     id="defs1" /><g
     id="layer1"><path
       d="m 149.98734,44.771348 c -44.0777,0 -79.814459,35.736763 -79.814459,79.814462 0,44.07771 35.736759,79.81248 79.814459,79.81248 44.07771,0 79.81248,-35.73477 79.81248,-79.81248 0,-44.077698 -35.73477,-79.814461 -79.81248,-79.814462 z m 0,0.388765 c 43.86712,0 79.42371,35.55859 79.42371,79.425697 0,43.86712 -35.55659,79.42371 -79.42371,79.42371 -43.86712,0 -79.425694,-35.55659 -79.425694,-79.42371 0,-43.867107 35.558574,-79.425696 79.425694,-79.425697 z"
       id="path572"
       style="color:#000000;font-style:normal;font-variant:normal;font-weight:normal;font-stretch:normal;font-size:medium;line-height:normal;font-family:sans-serif;font-variant-ligatures:normal;font-variant-position:normal;font-variant-caps:normal;font-variant-numeric:normal;font-variant-alternates:normal;font-variant-east-asian:normal;font-feature-settings:normal;font-variation-settings:normal;text-indent:0;text-align:start;text-decoration-line:none;text-decoration-style:solid;text-decoration-color:#000000;letter-spacing:normal;word-spacing:normal;text-transform:none;writing-mode:lr-tb;direction:ltr;text-orientation:mixed;dominant-baseline:auto;baseline-shift:baseline;text-anchor:start;white-space:normal;shape-padding:0;shape-margin:0;inline-size:0;clip-rule:nonzero;display:none;overflow:visible;visibility:visible;isolation:auto;mix-blend-mode:normal;color-interpolation:sRGB;color-interpolation-filters:linearRGB;solid-color:#000000;solid-opacity:1;fill:none;fill-opacity:1;fill-rule:nonzero;stroke:#2b375f;stroke-width:0.192899;stroke-linecap:butt;stroke-linejoin:miter;stroke-miterlimit:4;stroke-dasharray:none;stroke-dashoffset:0;stroke-opacity:1;color-rendering:auto;image-rendering:auto;shape-rendering:auto;text-rendering:auto;enable-background:accumulate;stop-color:#000000;stop-opacity:1" /><path
       style="fill:#fa7900;fill-opacity:1;stroke:#fa7900;stroke-width:8.72651;stroke-linecap:round;stroke-linejoin:round;stroke-dasharray:none;stroke-opacity:1;paint-order:stroke fill markers"
       d="m 135.42924,24.718468 v 64.705933 h 22.87415 V 24.718468 Z"
       id="path868-9" /><path
       style="fill:#fa7900;fill-opacity:1;stroke:none;stroke-width:0.680413;stroke-linecap:square;stroke-linejoin:miter;stroke-dasharray:none;stroke-opacity:1;paint-order:stroke fill markers"
       d="m 158.69074,145.44894 v 3.31444 h -3.47953 v 2.83881 h 3.47953 v 1.78277 a 1.07078,1.07078 45 0 0 1.07078,1.07078 h 1.07078 v -2.85355 h 4.04196 l -0.65625,-1.59682 v -1.24199 h -3.38571 v -2.36982 a 0.94462475,0.94462475 45 0 0 -0.94462,-0.94462 z"
       id="path865-28"
       transform="matrix(11.220378,0,0,11.220378,-1645.9516,-1529.6382)" /><path
       style="fill:#314c48;fill-opacity:1;stroke:#314c48;stroke-width:8.71316;stroke-linecap:round;stroke-linejoin:round;stroke-dasharray:none;stroke-opacity:1;paint-order:stroke fill markers"
       d="m 135.42213,216.33643 v 64.72005 h 22.88837 v -64.72005 h -6.38123 -10.16789 z"
       id="path884-6" /><path
       d="m 158.64772,171.3957 v 32.01792 h -12.01454 c -6.6355,0 -12.01459,-5.37904 -12.01459,-12.01454 V 171.3957 H 95.576973 v -17.91691 l -4.613841,-13.93553 h 43.655458 c 4.03197,1.76935 8.10631,2.44867 10.82251,5.84358 2.71626,3.3952 0,15.92647 4.07433,20.00075 4.07424,4.07438 9.13229,6.00811 9.13229,6.00811 z"
       style="color:#000000;font-style:normal;font-variant:normal;font-weight:normal;font-stretch:normal;font-size:medium;line-height:normal;font-family:sans-serif;font-variant-ligatures:normal;font-variant-position:normal;font-variant-caps:normal;font-variant-numeric:normal;font-variant-alternates:normal;font-variant-east-asian:normal;font-feature-settings:normal;font-variation-settings:normal;text-indent:0;text-align:start;text-decoration-line:none;text-decoration-style:solid;text-decoration-color:#000000;letter-spacing:normal;word-spacing:normal;text-transform:none;writing-mode:lr-tb;direction:ltr;text-orientation:mixed;dominant-baseline:auto;baseline-shift:baseline;text-anchor:start;white-space:normal;shape-padding:0;shape-margin:0;inline-size:0;clip-rule:nonzero;display:inline;overflow:visible;visibility:visible;isolation:auto;mix-blend-mode:normal;color-interpolation:sRGB;color-interpolation-filters:linearRGB;solid-color:#000000;solid-opacity:1;vector-effect:none;fill:#314c48;fill-opacity:1;fill-rule:nonzero;stroke:none;stroke-width:11.2204;stroke-linecap:square;stroke-linejoin:miter;stroke-miterlimit:4;stroke-dasharray:none;stroke-dashoffset:0;stroke-opacity:1;-inkscape-stroke:none;paint-order:stroke fill markers;color-rendering:auto;image-rendering:auto;shape-rendering:auto;text-rendering:auto;enable-background:accumulate;stop-color:#000000"
       id="path1-3-0" /></g></svg>
