<?xml version="1.0" encoding="UTF-8" standalone="no"?>
<!-- Created with Inkscape (http://www.inkscape.org/) -->

<svg
   width="300"
   height="300"
   viewBox="0 0 300 300"
   version="1.1"
   id="svg1"
   xml:space="preserve"
   xmlns="http://www.w3.org/2000/svg"
   xmlns:svg="http://www.w3.org/2000/svg"><defs
     id="defs1" /><g
     id="layer1"><g
       id="g15"
       transform="matrix(2.6798001,0,0,2.6798001,-992.63493,-331.00157)"><path
         style="fill:#ece6da;fill-opacity:1"
         d="m 399.22964,193.05351 v -1.20895 l 0.5762,-0.22005 c 0.31691,-0.12103 1.18352,-0.32957 1.92579,-0.46343 0.74228,-0.13386 1.54245,-0.32399 1.77817,-0.42252 0.88405,-0.36953 0.81239,1.21598 0.84673,-18.73531 0.0222,-12.89521 -0.01,-18.20642 -0.11074,-18.49654 -0.19224,-0.55144 -0.5273,-0.69297 -2.62953,-1.11073 -2.61514,-0.51969 -2.38662,-0.34726 -2.38662,-1.80085 v -1.22876 h 8.70794 8.70793 v 1.21795 c 0,0.76405 -0.0542,1.25142 -0.14534,1.30777 -0.0799,0.0494 -1.10926,0.28555 -2.2874,0.52476 -1.43263,0.29089 -2.21833,0.51121 -2.37235,0.66523 -0.18063,0.18063 -0.2507,0.54895 -0.32498,1.70821 -0.15312,2.38989 -0.0795,34.83139 0.08,35.23863 0.21415,0.54689 0.64308,0.73714 2.56354,1.1371 0.98606,0.20535 1.95109,0.43354 2.14452,0.50708 l 0.3517,0.13372 -0.0371,1.19465 -0.0371,1.19466 -8.67569,0.0332 -8.67568,0.0332 z"
         id="path10" /><path
         style="fill:#e77f1e;fill-opacity:1"
         d="m 443.6223,194.44373 c -1.64561,-0.44255 -3.47625,-1.67408 -4.43994,-2.98689 -0.55941,-0.76208 -1.14,-1.90221 -1.44632,-2.84024 -0.12164,-0.37251 -0.25803,-0.67718 -0.30308,-0.67705 -0.0451,1.2e-4 -0.54633,0.34884 -1.11396,0.77493 -1.18918,0.89266 -2.46064,1.54695 -3.00612,1.54695 -0.94839,0 -2.05535,-1.80015 -1.78046,-2.8954 0.0849,-0.33845 0.49375,-0.68959 3.16251,-2.71638 l 1.69868,-1.29007 -0.0735,-1.22556 c -0.28111,-4.68535 -0.19673,-7.24094 0.39617,-11.9976 0.40475,-3.24719 0.72109,-5.00216 1.36036,-7.54688 2.23234,-8.88616 5.71122,-13.76337 10.01381,-14.03886 2.66746,-0.17079 4.60368,1.10491 5.54567,3.65384 1.43975,3.89579 0.8693,9.77951 -1.55094,15.9968 -0.68067,1.74856 -2.96918,6.3289 -3.8674,7.74039 -0.38379,0.60311 -0.89589,1.41497 -1.13801,1.80415 -0.71569,1.15037 -2.6637,3.85095 -3.4258,4.74927 -1.14572,1.35051 -1.11974,1.28376 -0.94862,2.43734 0.27434,1.84946 1.38004,3.60569 2.67545,4.24951 0.36216,0.18 0.76196,0.23963 1.58127,0.23586 1.01996,-0.005 1.16254,-0.0399 2.04109,-0.50461 0.71754,-0.3795 1.17742,-0.75539 1.91357,-1.56407 1.05248,-1.15617 1.48617,-1.41691 2.17175,-1.30566 0.99456,0.1614 1.48497,0.88407 1.48497,2.18824 0,2.59917 -3.31566,5.61753 -6.89329,6.2752 -1.0606,0.19496 -3.2231,0.16128 -4.05783,-0.0632 z m -0.17649,-18.98927 c 2.67567,-4.45405 4.51327,-8.68271 5.38912,-12.40131 0.17703,-0.75166 0.35145,-1.48276 0.38758,-1.62467 0.18662,-0.7329 0.44843,-3.22294 0.44676,-4.24901 -0.002,-1.21032 -0.24094,-2.51586 -0.5808,-3.17308 -0.40178,-0.77696 -1.42878,-0.95926 -2.16069,-0.38354 -2.11946,1.66717 -4.38563,12.11932 -4.80406,22.1576 -0.0459,1.10046 -0.0219,1.45049 0.0991,1.44785 0.0877,-0.002 0.63812,-0.80014 1.22304,-1.77384 z"
         id="path9" /><path
         style="fill:#6de5cf;fill-opacity:1"
         d="m 422.39396,210.41408 c -1.39288,-0.0364 -1.74924,-0.13889 -1.74924,-0.5032 0,-0.22678 2.38827,-4.18818 4.35396,-7.22187 0.44346,-0.6844 0.8063,-1.29334 0.8063,-1.35319 0,-0.0599 -6.59457,-0.10884 -14.65459,-0.10884 -13.58137,0 -14.68187,-0.0161 -15.02717,-0.22009 -0.96945,-0.57266 -0.91954,-2.14154 0.0826,-2.59817 0.24394,-0.11114 7.89778,-0.14888 30.19212,-0.14888 33.0511,0 30.37848,-0.0738 30.81754,0.85141 0.28943,0.60993 0.11026,1.30285 -0.46121,1.78371 l -0.39459,0.33202 h -14.76135 c -8.11874,0 -14.76134,0.0443 -14.76134,0.0985 0,0.0542 0.19973,0.39506 0.44384,0.75755 0.24411,0.36248 0.99004,1.55179 1.65761,2.64291 0.66757,1.09111 1.6289,2.64605 2.13628,3.45542 0.50739,0.80937 0.92253,1.57146 0.92253,1.69354 0,0.53765 -0.23504,0.56891 -4.30508,0.57257 -2.13776,0.002 -4.52197,-0.0131 -5.29825,-0.0334 z"
         id="path7" /></g></g></svg>
