<?xml version="1.0" encoding="UTF-8" standalone="no"?>
<!-- Created with Inkscape (http://www.inkscape.org/) -->

<svg
   width="300"
   height="300"
   viewBox="0 0 300 300"
   version="1.1"
   id="svg1"
   xml:space="preserve"
   xmlns="http://www.w3.org/2000/svg"
   xmlns:svg="http://www.w3.org/2000/svg"><defs
     id="defs1" /><g
     id="layer1"><g
       id="g16"
       transform="matrix(2.7203604,0,0,2.7203604,-891.48238,-664.85)"><path
         style="fill:#e77f1e;fill-opacity:1"
         d="m 410.14724,319.60221 c -2.72618,-0.35233 -5.49863,-2.38918 -6.00024,-4.40822 l -0.0881,-0.35477 h -1.43854 -1.43853 l -0.86858,-0.83854 c -0.47772,-0.4612 -0.91944,-0.83855 -0.98161,-0.83855 -0.0622,0 -0.48701,0.37735 -0.94411,0.83855 -0.4571,0.4612 -0.88195,0.83854 -0.94411,0.83854 -0.0622,0 -0.50877,-0.38206 -0.99245,-0.84901 -1.0207,-0.9854 -1.03343,-0.98459 -1.93363,0.12252 l -0.58053,0.71396 -0.77404,0.006 -0.77404,0.006 -1.41907,-1.50024 c -0.78049,-0.82513 -1.46641,-1.58143 -1.52426,-1.68065 -0.12843,-0.22027 0.18097,-0.61229 1.6894,-2.14054 l 1.11417,-1.12881 h 5.82521 5.82521 l 0.41426,-0.84148 c 1.43391,-2.91269 5.02221,-4.65698 8.26559,-4.01797 4.193,0.82612 6.86355,4.68223 6.31376,9.11667 -0.44001,3.54891 -3.22376,6.47338 -6.57277,6.90501 -1.16518,0.15017 -1.3692,0.15497 -2.17295,0.0511 z m 4.85282,-5.99189 c 0.55563,-0.22232 1.13818,-1.00655 1.27011,-1.70984 0.21261,-1.13328 -0.78595,-2.51494 -1.88587,-2.6094 -1.20712,-0.10367 -2.03162,0.34435 -2.45808,1.33568 -0.83195,1.93393 1.07388,3.78378 3.07384,2.98356 z"
         id="path3" /><path
         style="fill:#6de5cf;fill-opacity:1"
         d="m 376.72227,319.80736 c -1.51214,-0.3434 -2.64264,-0.94657 -3.81971,-2.03798 -1.39117,-1.28992 -2.3253,-2.91623 -2.63791,-4.5926 -0.17134,-0.91882 -0.16465,-2.54406 0.014,-3.39472 0.1702,-0.81056 0.8379,-2.31137 1.37595,-3.09278 1.73186,-2.51519 5.12608,-4.05553 7.93726,-3.60204 3.56455,0.57502 6.13486,2.78995 7.13322,6.14694 0.31505,1.05938 0.32236,3.4354 0.014,4.56367 -0.77576,2.83876 -2.8869,4.98917 -5.76747,5.87475 -0.98582,0.30307 -3.19915,0.37326 -4.24935,0.13476 z m 2.62296,-2.33406 c 0.0431,-0.11223 0.0783,-0.43152 0.0783,-0.70953 0,-0.39666 0.0489,-0.50548 0.22724,-0.50548 0.35363,0 1.47381,-0.79142 1.7937,-1.26726 0.61879,-0.92049 0.54418,-2.2726 -0.17154,-3.10876 -0.47867,-0.55921 -0.97888,-0.82975 -2.38533,-1.29011 -1.06492,-0.34857 -1.39917,-0.62356 -1.39917,-1.15112 0,-0.88987 1.41386,-1.14241 2.69863,-0.48202 l 0.69903,0.3593 0.23607,-0.30345 c 0.41852,-0.53802 0.49285,-1.03905 0.20192,-1.36125 -0.3008,-0.33315 -1.26928,-0.8128 -1.64113,-0.8128 -0.21888,0 -0.25973,-0.0857 -0.26139,-0.54828 -0.003,-0.79785 -0.10453,-0.89201 -0.91328,-0.84598 l -0.69733,0.0397 -0.039,0.67659 -0.039,0.67658 -0.63925,0.275 c -1.14308,0.49174 -1.77252,1.56064 -1.6354,2.77717 0.11853,1.05154 0.98242,1.84071 2.74201,2.50482 1.33215,0.50278 1.66466,0.78361 1.55818,1.31598 -0.19759,0.98797 -1.4298,1.15209 -2.89266,0.38528 -0.7172,-0.37595 -0.78385,-0.38884 -0.96153,-0.18597 -0.32748,0.37392 -0.61059,1.03137 -0.53216,1.23577 0.10877,0.28344 1.18755,0.93622 1.82597,1.1049 l 0.54828,0.14487 v 0.64006 0.64006 h 0.76023 c 0.57423,0 0.7794,-0.0499 0.83854,-0.20406 z"
         id="path2" /><path
         style="fill:#ece6da;fill-opacity:1"
         d="m 360.8466,329.97979 c -0.10643,-0.034 -0.57085,-0.18245 -1.03205,-0.32988 -2.03908,-0.6518 -3.66448,-2.54122 -4.20716,-4.89054 -0.0393,-0.17004 -0.063,-6.13066 -0.0527,-13.24581 0.0205,-14.17697 -0.009,-13.61998 0.79927,-15.12547 1.07701,-2.00623 2.77096,-3.13444 5.0012,-3.3309 l 0.96008,-0.0846 0.0154,-4.70874 c 0.0166,-5.08938 0.0935,-5.87386 0.77143,-7.8694 1.48364,-4.36742 3.93597,-7.27653 8.08655,-9.59273 3.82682,-2.13554 9.41199,-2.37619 13.54771,-0.58372 5.50106,2.38422 9.12955,7.17815 9.89947,13.0791 0.0741,0.56763 0.14395,2.96231 0.15532,5.32152 0.0146,3.03463 0.0625,4.29235 0.16369,4.29934 0.0787,0.005 0.23011,0.026 0.33654,0.0456 0.10643,0.0197 0.52231,0.0732 0.92418,0.11895 2.10662,0.23984 4.12887,1.92557 5.03625,4.19817 0.26582,0.66576 0.29414,0.99431 0.35706,4.14179 0.0376,1.88027 0.0477,3.63637 0.0225,3.90245 l -0.0458,0.48377 h -1.52706 -1.52705 l -0.0397,-3.57993 -0.0397,-3.57993 -0.35033,-0.66423 c -0.19268,-0.36532 -0.56818,-0.8438 -0.83445,-1.06329 -1.02079,-0.84142 0.0765,-0.79719 -18.82057,-0.75861 l -17.14852,0.035 -0.74269,0.36457 c -0.73726,0.36189 -1.13357,0.76778 -1.59645,1.63503 -0.23067,0.4322 -0.24099,1.00088 -0.24099,13.28767 0,11.487 0.0217,12.8836 0.20621,13.28767 0.30491,0.66762 0.84148,1.25041 1.51673,1.64736 l 0.59918,0.35224 h 17.54488 17.54488 l 0.51772,-0.2773 c 0.6597,-0.35334 1.17622,-0.87072 1.52456,-1.5271 0.25785,-0.48587 0.27762,-0.74123 0.32134,-4.15165 l 0.0466,-3.63393 1.56854,0.0217 1.56853,0.0217 v 3.74119 c 0,3.64058 -0.008,3.76373 -0.31219,4.57973 -0.4221,1.13376 -1.03558,2.03959 -1.96259,2.89783 -0.92219,0.85379 -1.2045,1.01001 -2.44793,1.35458 -0.93354,0.2587 -1.22215,0.26266 -18.43136,0.25263 -9.61563,-0.006 -17.57005,-0.038 -17.67648,-0.072 z m 28.21339,-41.36114 c -0.0823,-4.67685 -0.17161,-5.40444 -0.88263,-7.19211 -2.09348,-5.26348 -8.08183,-7.93135 -13.21324,-5.88664 -1.31282,0.52312 -1.51299,0.63377 -2.50693,1.38587 -2.04464,1.54712 -3.32357,3.42326 -4.0172,5.89309 -0.25619,0.91222 -0.28378,1.36968 -0.33423,5.54178 l -0.055,4.54748 h 10.54237 10.54236 z m -20.4085,-15.70654 c 0.0438,-0.071 0.0182,-0.12901 -0.0569,-0.12901 -0.0751,0 -0.13662,0.0581 -0.13662,0.12901 0,0.071 0.0256,0.129 0.0569,0.129 0.0313,0 0.0928,-0.0581 0.13662,-0.129 z m 17.93191,-1.54808 c -0.0439,-0.0709 -0.1779,-0.12493 -0.29788,-0.11994 -0.17784,0.007 -0.17047,0.0296 0.0399,0.11994 0.34521,0.14834 0.34969,0.14834 0.25801,0 z"
         id="path1" /></g></g></svg>
