<svg width="300" height="300" viewBox="0 0 300 300" xmlns="http://www.w3.org/2000/svg">
  <g>
    <path fill="#fa7900" stroke="#fa7900" stroke-width="4.91305" stroke-linecap="round" stroke-linejoin="round" d="m 137.953,78.389431 v 36.343719 h 12.90864 V 78.389431 Z"/>
    <path fill="#314c48" stroke="#314c48" stroke-width="7.02829" stroke-linecap="square" d="m 40.222997,79.124899 v 2.005986 c 3.871968,0.200844 10.189404,5.616803 10.189404,14.643712 V 202.89402 c 0,9.02691 -6.317436,14.44308 -10.189404,14.64365 v 2.00596 h 40.757615 v -2.00596 c -3.871995,-0.20084 -10.189404,-5.61674 -10.189404,-14.64365 v -49.67997 h 16.710618 c 5.502271,0 9.578043,1.60478 11.208319,8.02392 h 2.037915 v -20.05984 h -2.037915 c -1.630276,6.41914 -5.706048,8.02395 -11.208319,8.02395 H 70.791208 V 83.136897 h 21.397723 c 18.748509,0.200577 25.065939,4.814334 31.790989,16.248437 l 2.03783,-0.200844 -8.3553,-20.059858 z"/>
    <path fill="#fa7900" d="m 158.69074,145.44894 v 3.48362 h -3.47953 v 2.14562 h 3.47953 v 2.30678 a 1.07078,1.07078 45 0 0 1.07078,1.07078 h 1.07078 v -3.37756 h 4.04196 l -0.65625,-1.07281 v -1.07281 h -3.38571 v -2.539 a 0.94462475,0.94462475 45 0 0 -0.94462,-0.94462 z" transform="matrix(5.6374091,0,0,5.6374091,-756.31716,-695.22325)"/>
    <path fill="#314c48" stroke="#314c48" stroke-width="4.85517" stroke-linecap="round" stroke-linejoin="round" d="m 138.03035,185.47668 v 36.06347 h 12.75391 v -36.06347 h -3.55576 -5.66578 z"/>
    <path fill="#314c48" d="m 150.3603,156.46625 v 19.04068 h -6.03641 c -3.33385,0 -6.03644,-2.70257 -6.03644,-6.03642 v -13.00426 h -19.61552 v -6.04785 l -2.31811,-6.04791 h 21.93363 c 2.02577,0.88896 4.07281,1.23027 5.43751,2.93597 1.36472,1.70584 0,4.09413 2.04706,6.14116 2.04698,2.04706 4.58828,3.01863 4.58828,3.01863 z"/>
    <path fill="#fa7900" stroke-width="6.87505" d="m 229.70999,76.035023 h -61.22676 v 21.368303 h 1.93533 c 4.22253,0 8.62103,0.33386 8.62103,6.343684 v 91.62664 c 0,2.17021 -0.70378,3.67267 -1.58346,4.67433 -1.7594,1.50244 -4.39848,1.66938 -7.03757,1.66938 h -1.93533 v 21.36825 h 50.49449 v -21.36825 h -2.11129 c -4.22252,0 -8.44507,-0.33389 -8.44507,-6.34371 v -35.41991 h 21.28863 c 21.46457,0 40.29002,-17.39712 40.29002,-40.10091 0,-21.86911 -18.1217,-43.817807 -40.29002,-43.817807 z m -4.39848,62.884327 H 208.42136 V 97.403326 h 16.89015 c 9.14885,0 14.60296,13.935584 14.60296,22.449504 0,8.51391 -5.63006,19.06652 -14.60296,19.06652 z"/>
  </g>
</svg>
