<?xml version="1.0" encoding="UTF-8" standalone="no"?>
<!-- Created with Inkscape (http://www.inkscape.org/) -->

<svg
   width="243.93115"
   height="82.891083"
   viewBox="0 0 243.93115 82.891083"
   version="1.1"
   id="svg1"
   xml:space="preserve"
   xmlns="http://www.w3.org/2000/svg"
   xmlns:svg="http://www.w3.org/2000/svg"><defs
     id="defs1" /><g
     id="layer1"
     transform="matrix(0.84848052,0,0,0.84848052,-9.7023977,-99.533299)"><path
       d="m 149.98734,44.771348 c -44.0777,0 -79.814459,35.736763 -79.814459,79.814462 0,44.07771 35.736759,79.81248 79.814459,79.81248 44.07771,0 79.81248,-35.73477 79.81248,-79.81248 0,-44.077698 -35.73477,-79.814461 -79.81248,-79.814462 z m 0,0.388765 c 43.86712,0 79.42371,35.55859 79.42371,79.425697 0,43.86712 -35.55659,79.42371 -79.42371,79.42371 -43.86712,0 -79.425694,-35.55659 -79.425694,-79.42371 0,-43.867107 35.558574,-79.425696 79.425694,-79.425697 z"
       id="path572"
       style="color:#000000;font-style:normal;font-variant:normal;font-weight:normal;font-stretch:normal;font-size:medium;line-height:normal;font-family:sans-serif;font-variant-ligatures:normal;font-variant-position:normal;font-variant-caps:normal;font-variant-numeric:normal;font-variant-alternates:normal;font-variant-east-asian:normal;font-feature-settings:normal;font-variation-settings:normal;text-indent:0;text-align:start;text-decoration-line:none;text-decoration-style:solid;text-decoration-color:#000000;letter-spacing:normal;word-spacing:normal;text-transform:none;writing-mode:lr-tb;direction:ltr;text-orientation:mixed;dominant-baseline:auto;baseline-shift:baseline;text-anchor:start;white-space:normal;shape-padding:0;shape-margin:0;inline-size:0;clip-rule:nonzero;display:none;overflow:visible;visibility:visible;isolation:auto;mix-blend-mode:normal;color-interpolation:sRGB;color-interpolation-filters:linearRGB;solid-color:#000000;solid-opacity:1;fill:none;fill-opacity:1;fill-rule:nonzero;stroke:#2b375f;stroke-width:0.192899;stroke-linecap:butt;stroke-linejoin:miter;stroke-miterlimit:4;stroke-dasharray:none;stroke-dashoffset:0;stroke-opacity:1;color-rendering:auto;image-rendering:auto;shape-rendering:auto;text-rendering:auto;enable-background:accumulate;stop-color:#000000;stop-opacity:1" /><path
       style="fill:#fa7900;fill-opacity:1;stroke:#fa7900;stroke-width:2.1161;stroke-linecap:round;stroke-linejoin:round;stroke-dasharray:none;stroke-opacity:1;paint-order:stroke fill markers"
       d="m 143.40819,119.73817 v 15.65364 h 5.5599 v -15.65364 z"
       id="path868-9" /><path
       style="font-size:59.9092px;font-family:Aurallia;-inkscape-font-specification:'Aurallia, Normal';fill:#314c48;fill-opacity:1;stroke:#314c48;stroke-width:3.10451;stroke-linecap:square;stroke-dasharray:none;stroke-opacity:1;paint-order:stroke fill markers"
       d="m 111.73696,159.36791 h 3.8584 l -0.009,13.81128 c -0.003,4.69437 1.22181,7.39524 5.59463,7.39524 l 8.23125,-4.95161 v -1.28612 c -1.9292,1.02892 -3.987,1.9935 -5.46605,1.9292 -1.54335,-0.12849 -2.57225,-1.28614 -2.57225,-4.50145 l 0.009,-12.39654 h 5.86165 l 0.57875,-1.97398 h -6.4404 l -0.009,-18.03995 h -1.28612 c -1.73628,4.56577 -3.72142,16.81812 -8.35147,18.03995 z"
       id="path32-8" /><path
       style="font-size:59.9092px;font-family:Aurallia;-inkscape-font-specification:'Aurallia, Normal';fill:#314c48;fill-opacity:1;stroke:#314c48;stroke-width:3.10451;stroke-linecap:square;stroke-dasharray:none;stroke-opacity:1;paint-order:stroke fill markers"
       d="m 77.880215,154.14447 c 2.315045,-2.25072 5.08023,-2.57225 5.08023,0.32156 v 20.38512 c 0,2.57228 0.57875,5.72328 4.372848,5.72328 l 6.494948,-4.95161 v -1.28612 c -2.315021,2.25074 -5.080206,2.57227 -5.080206,-0.32154 V 156.2666 c 0.900292,-2.44366 3.408233,-4.823 6.109119,-4.823 3.794075,0 5.466036,3.27963 5.466036,10.61056 v 12.79699 c 0,2.57228 0.57874,5.72328 4.37283,5.72328 l 6.49494,-4.95161 v -1.28612 c -2.31502,2.25074 -5.08021,2.57227 -5.08021,-0.32154 v -15.24062 c 0,-5.53036 -1.86487,-10.48198 -8.617055,-10.48198 -3.665454,0 -7.330906,2.82951 -8.74566,5.7233 v -0.38584 c 0,-2.57225 -0.578761,-5.72326 -4.372836,-5.72326 l -6.494984,4.95159 z"
       id="path31-6" /><path
       style="font-size:59.9092px;font-family:Aurallia;-inkscape-font-specification:'Aurallia, Normal';fill:#314c48;fill-opacity:1;stroke:#314c48;stroke-width:3.10451;stroke-linecap:square;stroke-dasharray:none;stroke-opacity:1;paint-order:stroke fill markers"
       d="m 61.044522,181.21752 c 8.231222,0 15.433565,-6.5593 15.433565,-16.7197 0,-10.16043 -7.202343,-16.71967 -15.433565,-16.71967 -8.231222,0 -15.433554,6.55924 -15.433554,16.71967 0,10.1604 7.202332,16.7197 15.433554,16.7197 z m -9.645964,-16.7197 c 0,-10.41766 5.015908,-15.43358 9.645964,-15.43358 4.630067,0 9.645975,5.01592 9.645975,15.43358 0,10.41763 -5.015908,15.43355 -9.645975,15.43355 -4.630056,0 -9.645964,-5.01592 -9.645964,-15.43355 z"
       id="path15-5" /><path
       style="font-size:59.9092px;font-family:Aurallia;-inkscape-font-specification:'Aurallia, Normal';fill:#314c48;fill-opacity:1;stroke:#314c48;stroke-width:3.02716;stroke-linecap:square;stroke-dasharray:none;stroke-opacity:1;paint-order:stroke fill markers"
       d="m 16.578656,120.05494 v 0.864 c 1.6677,0.0865 4.388701,2.41922 4.388701,6.30721 v 46.13753 c 0,3.88799 -2.721001,6.2208 -4.388701,6.30719 v 0.86399 h 17.554759 v -0.86399 c -1.667699,-0.0865 -4.388678,-2.4192 -4.388678,-6.30719 v -21.39772 h 7.197438 c 2.369889,0 4.12537,0.6912 4.82756,3.456 h 0.87774 v -8.64 h -0.87774 c -0.70219,2.7648 -2.457671,3.456 -4.82756,3.456 h -7.197438 v -28.45501 h 9.216238 c 8.07519,0.0864 10.796168,2.07359 13.692721,6.99839 l 0.877728,-0.0865 -3.598719,-8.64 z"
       id="text838-0" /><path
       style="fill:#fa7900;fill-opacity:1;stroke:none;stroke-width:1.83229;stroke-linecap:square;stroke-linejoin:miter;stroke-dasharray:none;stroke-opacity:1;paint-order:stroke fill markers"
       d="m 143.24865,138.50581 v 8.9255 h -9.37007 v 7.64467 h 9.37007 v 4.80084 a 2.8835171,2.8835171 0 0 0 2.88352,2.88352 h 2.88352 v -7.68436 h 10.88464 l -1.76722,-4.3001 v -3.34457 h -9.11742 v -6.38172 a 2.543792,2.543792 0 0 0 -2.54378,-2.54378 z"
       id="path865-28" /><path
       style="fill:#314c48;fill-opacity:1;stroke:#314c48;stroke-width:2.09118;stroke-linecap:round;stroke-linejoin:round;stroke-dasharray:none;stroke-opacity:1;paint-order:stroke fill markers"
       d="m 143.44151,165.86184 v 15.53294 h 5.49325 v -15.53294 h -1.53151 -2.44031 z"
       id="path884-6" /><path
       d="m 149.01569,155.07598 v 7.68436 h -2.88351 c -1.59253,0 -2.88352,-1.29098 -2.88352,-2.88351 v -4.80085 h -9.37007 v -4.3001 l -1.10733,-3.34455 h 10.4774 c 0.96768,0.42465 1.94553,0.58769 2.59742,1.40247 0.65191,0.81486 0,3.82238 0.97785,4.80022 0.97782,0.97786 2.19176,1.44196 2.19176,1.44196 z"
       style="color:#000000;font-style:normal;font-variant:normal;font-weight:normal;font-stretch:normal;font-size:medium;line-height:normal;font-family:sans-serif;font-variant-ligatures:normal;font-variant-position:normal;font-variant-caps:normal;font-variant-numeric:normal;font-variant-alternates:normal;font-variant-east-asian:normal;font-feature-settings:normal;font-variation-settings:normal;text-indent:0;text-align:start;text-decoration-line:none;text-decoration-style:solid;text-decoration-color:#000000;letter-spacing:normal;word-spacing:normal;text-transform:none;writing-mode:lr-tb;direction:ltr;text-orientation:mixed;dominant-baseline:auto;baseline-shift:baseline;text-anchor:start;white-space:normal;shape-padding:0;shape-margin:0;inline-size:0;clip-rule:nonzero;display:inline;overflow:visible;visibility:visible;isolation:auto;mix-blend-mode:normal;color-interpolation:sRGB;color-interpolation-filters:linearRGB;solid-color:#000000;solid-opacity:1;vector-effect:none;fill:#314c48;fill-opacity:1;fill-rule:nonzero;stroke:none;stroke-width:2.69291;stroke-linecap:square;stroke-linejoin:miter;stroke-miterlimit:4;stroke-dasharray:none;stroke-dashoffset:0;stroke-opacity:1;-inkscape-stroke:none;paint-order:stroke fill markers;color-rendering:auto;image-rendering:auto;shape-rendering:auto;text-rendering:auto;enable-background:accumulate;stop-color:#000000"
       id="path1-3-0" /><path
       style="font-size:69.8922px;font-family:'BN Slabby Bold';-inkscape-font-specification:'BN Slabby Bold, Normal';letter-spacing:-1.90539px;fill:#fa7900;stroke-width:3.03994"
       d="m 289.91615,144.24601 c -4.84985,0 -6.06176,6.06199 -6.59222,7.95645 v -6.81885 H 267.8643 v 8.79112 c 2.80382,0 3.63767,1.2875 3.71345,3.56088 v 11.06407 0.22663 c 0,3.03116 -0.53074,4.16893 -3.71345,4.16893 v 8.78888 h 19.24713 v -8.78888 c -2.95539,0 -3.7875,-1.29025 -3.7875,-3.63941 v -11.51731 c 0,-2.04603 0.30261,-4.16894 1.59085,-4.16894 1.51557,0 1.51586,2.50181 5.38057,2.50181 2.8796,0 5.00138,-2.42386 5.00138,-6.51592 0,-2.87961 -1.06119,-5.60946 -5.38058,-5.60946 z"
       id="path110" /><path
       id="path111-8"
       style="font-size:69.8922px;font-family:'BN Slabby Bold';-inkscape-font-specification:'BN Slabby Bold, Normal';letter-spacing:-1.90539px;fill:#fa7900;stroke-width:3.03994"
       d="m 255.56615,127.95394 c -3.5616,0.0758 -6.51544,3.03063 -6.43964,6.59223 0.0758,3.78895 2.95533,6.59446 6.66851,6.59446 3.5616,0 6.43964,-3.10864 6.43964,-6.59446 -0.0758,-3.71314 -3.03112,-6.59223 -6.66851,-6.59223 z m -39.53313,16.21803 c -10.45749,0 -17.42968,8.63767 -17.42968,19.85295 0,11.21527 6.97219,19.0968 17.42968,19.0968 6.44121,0 10.23131,-4.09192 11.51955,-5.9864 l 0.15034,4.8488 h 15.00415 v -8.78888 c -2.8796,0 -3.71397,-1.28853 -3.78975,-3.71345 v -10.91374 c 0,-3.18271 0.53125,-4.39332 3.78975,-4.39332 v -8.79112 h -15.53368 v 4.62219 c -1.0609,-2.65227 -5.07804,-5.83383 -11.14036,-5.83383 z m 29.69641,1.21164 v 8.86518 c 2.80382,0 3.63767,1.21344 3.71345,3.48682 v 11.14036 0.15034 c 0,3.10693 -0.53073,4.24298 -3.71345,4.24298 v 8.79112 h 19.24713 v -8.79112 c -2.95538,0 -3.7875,-1.3643 -3.7875,-3.71346 v -24.17222 z m -26.74135,8.71484 c 5.07719,0 8.1853,4.16749 8.1853,9.62356 v 0.30291 c 0,4.84985 -3.10811,9.24437 -8.1853,9.24437 -4.77407,0 -8.33564,-4.01542 -8.33564,-9.54728 0,-5.68342 3.56157,-9.62356 8.33564,-9.62356 z" /><path
       style="font-size:69.8922px;font-family:'BN Slabby Bold';-inkscape-font-specification:'BN Slabby Bold, Normal';letter-spacing:-1.90539px;fill:#fa7900;stroke-width:3.03994"
       d="m 161.73583,119.37598 v 9.20398 h 0.83468 c 1.81869,0 3.71345,0.14442 3.71345,2.73292 v 38.81064 c 0,0.93472 -0.30322,1.58348 -0.68211,2.0149 -0.75779,0.64712 -1.89466,0.71801 -3.03134,0.71801 h -0.83468 v 9.20398 h 21.74894 v -9.20398 h -0.90873 c -1.81869,0 -3.63716,-0.14443 -3.63716,-2.73291 v -14.60251 h 9.16808 c 9.24503,0 17.35338,-7.4916 17.35338,-17.27037 0,-9.41927 -7.80524,-18.87466 -17.35338,-18.87466 z m 17.20305,9.20398 h 7.27433 c 3.94051,0 6.28931,6.00364 6.28931,9.67068 0,3.66703 -2.42459,8.21223 -6.28931,8.21223 h -7.27433 z"
       id="path55-2" /><path
       d="m 273.81446,208.75112 c -1.10603,0 -1.50104,-0.79002 -1.81704,-1.81703 l -6.20164,-20.73794 h -8.57167 l -6.35964,20.77743 c -0.31601,1.10602 -0.67152,1.77754 -1.77754,1.77754 h -0.94801 v 5.01661 h 10.1517 v -5.01661 h -0.86901 c -0.82952,0 -1.14553,-0.47401 -1.02703,-1.02702 l 0.67152,-2.48855 h 7.54466 l 0.67151,2.44905 c 0.15801,0.55301 -0.15799,1.06652 -0.98752,1.06652 h -0.86902 v 5.01661 h 11.37625 v -5.01661 z m -15.44483,-8.29518 2.44905,-9.08519 2.48855,9.08519 z m 26.34708,-7.70266 c 0,-1.42202 0.94801,-1.50103 1.89604,-1.50103 h 0.47401 v -5.0561 h -11.33674 v 5.0561 h 0.43451 c 0.94802,0 1.93554,0.079 1.93554,1.50103 v 14.49681 c 0,1.42203 -0.98752,1.50103 -1.93554,1.50103 h -0.43451 v 5.01661 h 11.33674 v -5.01661 h -0.47401 c -0.94803,0 -1.89604,-0.079 -1.89604,-1.50103 z"
       id="text108"
       style="font-size:34.384px;font-family:'BN Slabby Bold';-inkscape-font-specification:'BN Slabby Bold, Normal';fill:#fa7900;stroke-width:4.96927"
       aria-label="AI" /></g></svg>
