<?xml version="1.0" encoding="UTF-8" standalone="no"?>
<!-- Created with Inkscape (http://www.inkscape.org/) -->

<svg
   width="300"
   height="300"
   viewBox="0 0 300 300"
   version="1.1"
   id="svg1"
   xml:space="preserve"
   xmlns="http://www.w3.org/2000/svg"
   xmlns:svg="http://www.w3.org/2000/svg"><defs
     id="defs1" /><g
     id="layer1"><path
       d="m 147.2218,105.90287 c -10.602,0.24102 -21.37246,4.48745 -29.11285,11.73295 -11.61995,10.87701 -16.88138,27.11981 -13.66407,42.17728 1.89201,8.85482 5.50027,15.70794 11.62438,22.09195 9.02742,9.41056 20.74284,14.19561 33.50384,13.68295 9.20822,-0.36994 17.42373,-3.19918 24.69352,-8.50819 l 1.42118,-1.03871 3.91413,3.95663 3.90942,3.96134 -0.14166,2.21912 c -0.11507,1.75978 -0.0169,2.5113 0.47214,3.61667 0.46137,1.04294 3.74721,4.55264 13.04084,13.93789 6.83321,6.90058 13.0601,13.01461 13.83873,13.58381 0.77865,0.56923 2.0469,1.25201 2.81875,1.52031 0.77188,0.26829 2.25572,0.49797 3.30033,0.50522 3.47653,0.0273 6.84389,-2.27092 8.6262,-5.88773 0.56488,-1.14615 0.70364,-1.9502 0.69881,-4.07939 -0.01,-4.46095 0.30865,-4.03781 -14.27786,-18.57442 -7.06898,-7.04481 -13.47143,-13.22316 -14.23064,-13.72545 -1.24678,-0.82475 -1.63202,-0.91124 -3.96134,-0.91124 h -2.57796 l -3.89996,-3.85276 -3.89526,-3.85275 1.69976,-2.43158 c 1.88116,-2.68461 4.72288,-8.40243 5.73662,-11.53939 1.44641,-4.47569 1.9759,-8.00911 1.97832,-13.25328 0.002,-5.49422 -0.48315,-9.09578 -1.82723,-13.51295 -0.9029,-2.96724 -3.05336,-7.75285 -4.57986,-10.18904 -2.8818,-4.59918 -8.53036,-10.65309 -12.71031,-13.62629 -5.41892,-3.85445 -12.15033,-6.46886 -19.4904,-7.5733 -1.58109,-0.23787 -3.18233,-0.37961 -4.79233,-0.42493 -0.70439,-0.0193 -1.40844,-0.0218 -2.11524,-0.005 z m 2.31825,8.55066 c 6.93861,0.22797 13.02153,2.32517 19.07492,6.49207 5.48584,3.77619 10.98599,10.77917 13.30521,16.94078 1.67326,4.4455 2.0981,7.01565 2.12469,12.88029 0.0218,4.77696 -0.0636,5.78662 -0.69406,8.10685 -3.04452,11.20585 -9.71769,19.62921 -19.39598,24.48575 -2.88903,1.4497 -4.95819,2.17533 -8.57899,3.0076 -3.68574,0.84718 -9.44189,1.03054 -12.75281,0.40605 -4.98478,-0.9402 -10.26327,-3.09472 -14.61779,-5.9727 -6.89492,-4.55697 -12.41521,-12.44838 -14.90108,-21.29875 -0.65667,-2.33781 -0.74578,-3.31672 -0.75545,-8.26737 -0.0121,-7.23914 0.61408,-10.11753 3.62613,-16.6575 4.65178,-10.1003 16.09843,-18.52078 26.92678,-19.81146 1.23118,-0.14674 2.43634,-0.248 3.61195,-0.29746 1.02866,-0.0433 2.03525,-0.0467 3.02648,-0.0145 z m 2.73376,9.44774 -1.56755,0.18421 c -0.86224,0.10322 -2.40811,0.32193 -3.43725,0.48631 -1.02914,0.16438 -2.2698,0.33677 -2.75737,0.38246 -0.97993,0.0919 -0.2415,-1.70923 -9.39108,23.00791 -5.23505,14.14211 -6.06817,16.13791 -7.07282,16.98328 -0.83222,0.70025 -2.64878,1.40691 -3.62141,1.41174 -0.25953,0.001 -0.39188,0.52419 -0.39188,1.56281 v 1.5581 h 7.79521 7.79994 v -1.36923 c 0,-1.43178 -0.29913,-1.74933 -1.66198,-1.75168 -0.94032,-0.002 -2.61078,-1.07244 -2.85179,-1.83194 -0.11894,-0.37477 0.19605,-1.7488 0.77434,-3.37589 0.53604,-1.5083 1.18366,-3.40628 1.43534,-4.22103 l 0.45798,-1.48255 h 7.90381 7.90381 l 1.43062,3.66388 c 1.87874,4.80577 1.99957,5.45098 1.17566,6.27489 -0.35654,0.35659 -1.00218,0.72193 -1.43534,0.8121 -0.43317,0.0899 -1.13872,0.23691 -1.56754,0.3258 -0.69141,0.14359 -0.77906,0.31856 -0.77906,1.55809 v 1.39756 h 9.97657 9.98126 v -1.5156 c 0,-1.48949 -0.0218,-1.52386 -1.0765,-1.69502 -1.86721,-0.303 -3.28355,-1.16601 -3.88109,-2.36549 -0.30867,-0.6196 -1.4891,-3.58483 -2.62516,-6.58651 -3.73868,-9.87808 -7.89445,-20.95066 -10.22206,-27.23367 z m -6.38347,9.38636 c 0.0401,-0.005 0.0737,0.0121 0.10854,0.0471 0.33563,0.33561 6.34803,17.596 6.20879,17.82372 -0.0786,0.12885 -3.02735,0.23134 -6.55347,0.23134 h -6.4118 l 0.15568,-0.69877 c 0.0858,-0.38594 0.9227,-2.80964 1.86027,-5.38252 0.93757,-2.57286 2.2211,-6.15005 2.8518,-7.95105 1.05361,-3.00856 1.49924,-4.04433 1.78002,-4.06993 z"
       style="baseline-shift:baseline;display:inline;overflow:visible;vector-effect:none;fill:#e77f1e;stroke-width:2.41741;enable-background:accumulate;stop-color:#000000;stop-opacity:1"
       id="path13" /><path
       d="m 137.64323,68.136552 c -28.27406,-0.01209 -40.022282,0.08195 -40.944961,0.330509 -3.538273,0.952752 -6.950114,3.827444 -8.682869,7.313621 l -1.08595,2.186044 v 71.885024 71.88032 l 0.991526,2.09633 c 1.760893,3.71716 5.697991,7.01804 9.192774,7.70551 0.743959,0.14649 25.41926,0.28054 54.83566,0.29746 l 53.48529,0.0331 -3.92358,-3.89525 -3.91885,-3.89523 -49.2501,-0.01 c -47.27239,-0.007 -49.303941,-0.0264 -50.50131,-0.58074 -1.76568,-0.81747 -2.988263,-2.24365 -3.295613,-3.83387 -0.143111,-0.74067 -0.266592,-32.16041 -0.273844,-69.82172 -0.01209,-59.419892 0.04521,-68.678081 0.443837,-70.020036 0.496779,-1.672827 1.92622,-3.304437 3.380585,-3.852754 0.601573,-0.226754 12.844525,-0.330509 38.891095,-0.330509 h 38.0129 l 0.0945,11.152209 0.0897,11.147495 0.82625,1.761134 c 0.95536,2.037711 2.78418,3.987671 4.6979,5.009511 1.31732,0.70342 1.52384,0.71674 13.11165,0.80739 l 11.77072,0.0897 v 40.40198 40.40197 l 3.73472,3.79138 3.73945,3.79138 0.005,-45.22738 c 0.007,-43.5408 -0.0169,-45.26241 -0.57602,-46.30859 -0.93353,-1.74448 -2.83162,-3.726907 -17.98423,-18.772725 -11.02936,-10.951636 -14.68737,-14.401842 -15.78403,-14.886944 -1.40829,-0.622678 -1.96282,-0.632323 -41.08187,-0.646828 z"
       style="baseline-shift:baseline;display:inline;overflow:visible;vector-effect:none;fill:#ece6da;stroke-width:2.41741;enable-background:accumulate;stop-color:#000000;stop-opacity:1"
       id="path12" /></g></svg>
