<?xml version="1.0" encoding="UTF-8" standalone="no"?>
<!-- Created with Inkscape (http://www.inkscape.org/) -->

<svg
   width="300"
   height="300"
   viewBox="0 0 300 300"
   version="1.1"
   id="svg1"
   xml:space="preserve"
   xmlns="http://www.w3.org/2000/svg"
   xmlns:svg="http://www.w3.org/2000/svg"><defs
     id="defs1" /><g
     id="layer1"><g
       id="g13"
       transform="matrix(1.2591784,0,0,1.2591784,-40.19445,-33.295646)"><path
         style="fill:#6de5cf;fill-opacity:1;stroke-width:2.08588"
         d="m 151.28001,131.92239 c -7.10426,-1.71835 -12.03663,-7.91293 -12.06604,-15.15373 -0.0261,-6.4223 3.88758,-12.49181 9.46391,-14.67717 8.8128,-3.453696 18.08789,0.95955 21.18471,10.08004 0.75088,2.21145 0.67664,6.77646 -0.15018,9.24028 -0.75767,2.25744 -2.8135,5.38972 -4.57974,6.97773 -3.6725,3.30188 -9.09258,4.68417 -13.85256,3.53285 z m 2.74608,-8.93476 c 4.06472,-4.13057 10.5561,-11.07788 10.5561,-11.29752 0,-0.29768 -2.30579,-2.47859 -2.62053,-2.47859 -0.11598,0 -2.32722,2.11908 -4.91404,4.7091 -2.58685,2.59002 -4.79966,4.7091 -4.91734,4.7091 -0.11765,0 -1.08773,-0.84494 -2.15563,-1.87768 -1.06789,-1.03272 -2.06728,-1.88036 -2.22084,-1.88364 -0.15352,-0.004 -0.85075,0.57431 -1.54929,1.28353 l -1.27009,1.28947 3.45605,3.41963 c 1.90084,1.8808 3.66018,3.41964 3.90963,3.41964 0.24945,0 1.02615,-0.58188 1.72598,-1.29304 z"
         id="path11" /><path
         style="fill:#ece6da;fill-opacity:1;stroke-width:2.08588"
         d="m 63.695344,187.3854 c 0.02858,-1.30088 0.179386,-2.38474 0.350199,-2.51709 0.164993,-0.12787 1.147484,-0.44014 2.183478,-0.694 4.872261,-1.19381 6.672522,-2.93274 9.3539,-9.03524 1.096735,-2.49602 6.416939,-18.2013 24.612029,-72.65487 2.74464,-8.21403 5.06479,-15.592331 5.15588,-16.396208 l 0.16562,-1.461618 1.74909,-0.729975 c 6.46546,-2.698357 9.38008,-3.804395 9.72352,-3.689922 0.16207,0.05402 1.49706,3.786832 2.96681,8.295212 3.64105,11.168553 11.549,35.257251 14.74924,44.928101 1.44478,4.36602 2.7093,8.31401 2.81007,8.77332 l 0.18314,0.83508 -9.08298,-0.0277 -9.08297,-0.0277 -0.32268,-0.94182 c -0.55355,-1.61566 -3.23053,-10.13245 -4.82108,-15.33825 -2.77584,-9.08521 -3.32145,-10.86092 -4.79554,-15.60734 -0.8044,-2.59002 -1.54568,-5.10265 -1.64734,-5.58366 -0.24962,-1.18115 -0.84597,-1.10674 -1.07832,0.13454 -0.10388,0.55502 -0.4337,1.7962 -0.73292,2.75821 -0.29922,0.962 -0.76433,2.47564 -1.03357,3.36364 -0.45706,1.50736 -4.52265,14.10543 -8.336679,25.83284 -2.343195,7.20488 -3.196653,10.08754 -2.99401,10.11278 0.09637,0.0125 12.950349,0.0125 28.564419,6e-5 15.61406,-0.0125 28.48555,-0.0219 28.6033,-0.0219 0.11764,-2e-5 0.19544,-1.44343 0.1725,-3.20758 -0.0425,-3.28138 0.0484,-3.78886 0.67818,-3.78886 0.36747,0 2.89919,2.01676 8.68043,6.91484 3.68068,3.11841 4.11294,3.52378 4.11294,3.85717 0,0.38923 -3.67269,3.62528 -9.99239,8.80444 -2.23729,1.83351 -3.43463,2.38848 -3.48342,1.61455 -0.0407,-0.64541 0.0542,-3.57169 0.14184,-4.36741 0.0484,-0.44106 -0.0146,-1.07338 -0.14121,-1.40514 -0.2249,-0.59153 -0.31053,-0.6025 -4.42121,-0.56667 -2.30552,0.0209 -4.25432,0.13767 -4.33066,0.26116 -0.28892,0.46744 5.84709,18.91455 7.21723,21.69767 0.46106,0.93654 1.47907,2.42096 2.26228,3.2987 l 1.42399,1.59591 -0.9359,2.62566 c -0.51473,1.44414 -1.13415,3.0808 -1.37645,3.63704 l -0.44058,1.01134 -14.82543,-0.0695 -14.82546,-0.0695 -0.058,-2.33935 c -0.0643,-2.58474 -0.16333,-2.44259 1.9417,-2.78553 5.60722,-0.91355 7.77443,-3.03047 7.13358,-6.96803 -0.30174,-1.85397 -0.0936,-1.15443 -3.32633,-11.18357 -1.40728,-4.36602 -2.73125,-8.54366 -2.94217,-9.28367 l -0.38351,-1.34545 H 106.98547 90.751024 l -1.826188,5.78548 c -1.004393,3.18201 -2.420163,7.6624 -3.146154,9.95641 -0.725991,2.294 -1.395308,4.88481 -1.487358,5.75734 -0.426124,4.03903 1.465936,5.98952 6.828671,7.03957 l 2.825471,0.55326 0.07739,2.47404 0.07739,2.47404 H 78.872604 63.64497 Z"
         id="path8" /><path
         style="fill:#e77f1e;fill-opacity:1;stroke-width:2.08588"
         d="m 141.93314,209.25028 c -0.16395,-2.95633 -0.14977,-2.98299 1.88378,-3.55619 4.19066,-1.18119 6.81782,-3.12582 8.461,-6.26279 1.62894,-3.1098 2.70096,-5.99616 6.8736,-18.50675 2.22131,-6.66002 6.78244,-20.22227 10.13585,-30.13831 10.93051,-32.32168 14.18146,-42.22443 14.3282,-43.64525 0.0795,-0.76879 0.27947,-1.45273 0.44463,-1.51986 6.10185,-2.48007 10.55113,-4.21329 10.81585,-4.21329 0.18669,0 0.52243,0.57518 0.74618,1.27819 1.7308,5.4383 5.94059,18.35685 8.7909,26.97648 1.8842,5.69802 4.40638,13.38732 5.60485,17.08734 1.19846,3.70002 3.25407,9.99677 4.56801,13.99279 1.31394,3.99603 3.20867,9.80842 4.2105,12.91642 3.3975,10.54012 6.63395,20.17252 7.61137,22.65305 2.01855,5.12272 4.49268,7.66286 8.68336,8.91501 1.1062,0.33053 2.31401,0.69176 2.684,0.80275 0.64881,0.19462 0.67274,0.28293 0.67274,2.48285 v 2.28105 l -19.711,0.0691 -19.71099,0.069 v -2.40546 c 0,-2.69996 -0.21922,-2.44313 2.55594,-2.9943 3.06192,-0.60814 5.37629,-1.92548 6.21513,-3.5377 0.79153,-1.52131 0.23009,-4.97643 -1.80592,-11.1134 -0.29459,-0.888 -1.38846,-4.27858 -2.4308,-7.53457 -1.04233,-3.25602 -2.01944,-6.07139 -2.17134,-6.25641 -0.2153,-0.26222 -3.8012,-0.33635 -16.26792,-0.33635 h -15.99178 l -0.36943,0.88416 c -0.33712,0.80684 -1.89802,5.53495 -4.372,13.24317 -2.22687,6.93824 -2.45379,9.44149 -1.02569,11.31386 1.31179,1.71983 2.79024,2.4016 7.88006,3.63373 l 1.14364,0.27685 v 2.40321 2.40318 l -15.17961,0.0125 -15.17962,0.0125 z m 57.09283,-40.66185 c 0,-0.19878 -0.24778,-1.07673 -0.55063,-1.9509 -0.30285,-0.87417 -1.13993,-3.52687 -1.86019,-5.89489 -0.72027,-2.36801 -2.09687,-6.78785 -3.05911,-9.82186 -0.96223,-3.03402 -2.0719,-6.60622 -2.46588,-7.93822 -0.394,-1.332 -1.17694,-3.87492 -1.73988,-5.65092 -0.56293,-1.77602 -1.54171,-4.98494 -2.17505,-7.13095 -1.16219,-3.93796 -1.49144,-4.71587 -1.69903,-4.01409 -0.43737,1.47861 -3.2523,10.29079 -4.89247,15.31597 -1.08689,3.33 -3.08502,9.50567 -4.4403,13.72369 -1.3553,4.21801 -2.87626,8.94081 -3.37996,10.49509 -0.5037,1.55429 -0.91581,2.91656 -0.91581,3.0273 0,0.11076 6.11514,0.20128 13.58916,0.20128 11.19606,0 13.58915,-0.0636 13.58915,-0.36152 z"
         id="path6" /></g></g></svg>
