<?xml version="1.0" encoding="UTF-8" standalone="no"?>
<!-- Created with Inkscape (http://www.inkscape.org/) -->

<svg
   width="300"
   height="300"
   viewBox="0 0 300 300"
   version="1.1"
   id="svg1"
   xml:space="preserve"
   xmlns="http://www.w3.org/2000/svg"
   xmlns:svg="http://www.w3.org/2000/svg"><defs
     id="defs1" /><g
     id="layer1"><g
       id="g24"
       transform="matrix(0.89269157,0,0,0.89269157,404.66268,473.64154)"><path
         style="fill:#193530;fill-opacity:1"
         d="m 358.0343,138.79071 c -0.20218,-0.12537 -0.50545,-0.49571 -0.67393,-0.82298 -0.16848,-0.32727 -0.40283,-0.70357 -0.52077,-0.83623 -0.11793,-0.13266 -0.21443,-0.30891 -0.21443,-0.39168 0,-0.0828 -0.0441,-0.16886 -0.0981,-0.19132 -0.0539,-0.0225 -0.30534,-0.41408 -0.55868,-0.87024 -0.25334,-0.45617 -0.6684,-1.14542 -0.92235,-1.53166 -0.25396,-0.38625 -0.49953,-0.78498 -0.54572,-0.88607 -0.0857,-0.18764 -0.49186,-0.92695 -1.11061,-2.02179 -0.19044,-0.33696 -0.44982,-0.75851 -0.5764,-0.93678 -0.12658,-0.17827 -0.27186,-0.42784 -0.32285,-0.55461 -0.051,-0.12677 -0.42192,-0.77804 -0.82429,-1.44728 l -0.73159,-1.21679 0.0235,-15.81994 c 0.0204,-13.696642 0.0487,-15.934002 0.21121,-16.669782 0.23286,-1.05434 0.38766,-1.59993 0.75598,-2.66452 0.15877,-0.45891 0.28868,-0.91927 0.28868,-1.02301 0,-0.10373 0.0788,-0.36236 0.1752,-0.57472 0.1548,-0.34115 0.75427,-2.22661 1.18692,-3.73314 0.14376,-0.50058 0.13582,-0.54305 -0.14905,-0.79647 -1.38348,-1.23075 -2.4391,-3.77739 -2.43801,-5.88158 5.6e-4,-1.0762 0.32178,-2.77493 0.73119,-3.86674 0.63649,-1.69739 0.67632,-1.79109 0.83071,-1.95431 0.0842,-0.0891 0.15317,-0.24069 0.15317,-0.33696 0,-0.0963 0.0498,-0.17505 0.11054,-0.17505 0.0608,0 0.16511,-0.15163 0.23178,-0.33696 0.0667,-0.18534 0.2375,-0.45873 0.37959,-0.60755 0.14209,-0.14881 0.25835,-0.31605 0.25835,-0.37163 0,-0.27304 2.43917,-2.97251 2.68588,-2.97251 0.0485,0 0.20458,-0.12406 0.34685,-0.2757 0.32279,-0.34404 0.61089,-0.58203 0.70458,-0.58203 0.0394,0 0.3588,-0.20771 0.70974,-0.46159 0.35093,-0.25387 0.85862,-0.53736 1.12819,-0.62998 0.26958,-0.0926 0.54821,-0.1899 0.61918,-0.21619 0.0861,-0.0319 0.11291,0.28348 0.0805,0.94867 -0.0577,1.18398 0.2354,2.60046 0.70418,3.40322 0.17138,0.29349 0.41405,0.70736 0.53926,0.91971 0.1252,0.21234 0.30441,0.43017 0.39823,0.48407 0.0938,0.0539 0.17058,0.15112 0.17058,0.21607 0,0.12038 1.55228,1.70773 1.67,1.70773 0.0819,0 0.96877,0.9475 1.24564,1.3308 0.11492,0.15911 0.26595,0.35209 0.33561,0.42887 0.18783,0.20699 0.74163,1.40021 0.9729,2.09622 0.13307,0.40047 0.20552,1.05031 0.21174,1.89925 0.01,1.30222 -0.1643,2.10574 -0.71664,3.31229 -0.21019,0.45913 -1.09776,1.69081 -1.37525,1.9084 -0.1368,0.10728 -0.14204,0.2524 -0.0283,0.78297 0.0768,0.3582 0.21582,0.82277 0.30889,1.03237 0.3718,0.83733 1.96796,6.45431 2.14608,7.55217 0.0851,0.52475 0.12875,6.065092 0.12876,16.355232 l 2e-5,15.56167 -0.53245,0.93207 c -0.29285,0.51265 -0.60917,1.1054 -0.70293,1.31723 -0.0938,0.21183 -0.21217,0.38515 -0.26311,0.38515 -0.0509,0 -0.0926,0.063 -0.0926,0.13993 0,0.077 -0.22056,0.48915 -0.49013,0.91599 -0.26957,0.42684 -0.49013,0.82796 -0.49013,0.89139 0,0.0634 -0.0414,0.13371 -0.0919,0.15617 -0.0505,0.0225 -0.19515,0.23384 -0.32135,0.46971 -0.59664,1.11517 -0.95733,1.75631 -1.23971,2.20363 -0.16916,0.26797 -0.30757,0.53886 -0.30757,0.60198 0,0.0631 -0.0414,0.13314 -0.0919,0.1556 -0.0505,0.0225 -0.18711,0.23383 -0.30349,0.46971 -0.11637,0.23588 -0.38073,0.70456 -0.58745,1.04153 -0.20672,0.33696 -0.40742,0.70916 -0.44599,0.82709 -0.0386,0.11794 -0.12172,0.21444 -0.18476,0.21444 -0.063,0 -0.17176,0.16393 -0.24161,0.3643 -0.26656,0.76464 -1.48421,1.10681 -2.24965,0.63216 z m 2.19619,-6.57171 c 0.10197,-0.13478 0.18716,-0.29169 0.1893,-0.34868 0.002,-0.057 0.10527,-0.24998 0.22916,-0.42886 0.12389,-0.17889 0.47507,-0.79394 0.7804,-1.36678 0.30532,-0.57284 0.67523,-1.24345 0.82201,-1.49025 0.14678,-0.24679 0.22293,-0.46735 0.16923,-0.49013 -0.0537,-0.0228 -1.70247,-0.0138 -3.66393,0.0199 l -3.56629,0.0613 1.02326,1.77673 c 0.56279,0.9772 1.02347,1.84565 1.02373,1.92989 2.6e-4,0.0842 0.0556,0.15317 0.12301,0.15317 0.0674,0 0.12253,0.0789 0.12253,0.17527 0,0.21252 0.25217,0.25359 1.55679,0.25359 0.8619,0 1.03185,-0.035 1.1908,-0.24507 z m -3.15179,-7.59703 c 0.0538,-0.0674 0.0832,-6.36711 0.0652,-13.99937 l -0.0327,-13.876842 h -1.40707 -1.40708 v 14.027052 14.02705 l 1.34189,-0.0277 c 0.73804,-0.0152 1.38593,-0.0828 1.43976,-0.15021 z m 6.28578,-13.85022 V 96.737728 l -1.3785,0.0346 -1.37849,0.0347 -0.0311,13.930302 -0.0312,13.9303 0.39875,0.0495 c 0.21931,0.0272 0.85365,0.0583 1.40965,0.0691 l 1.01089,0.0196 z m -0.61267,-17.481812 c 0,-0.0811 -0.1696,-0.70141 -0.37689,-1.3785 -0.2073,-0.67708 -0.51056,-1.66728 -0.67393,-2.20044 -0.16337,-0.53317 -0.29704,-1.04062 -0.29704,-1.12767 0,-0.0871 -0.064,-0.29871 -0.1422,-0.47037 l -0.1422,-0.31209 h -2.29231 -2.29231 l -0.2061,0.76583 c -0.11336,0.4212 -0.25668,0.8761 -0.31849,1.01089 -0.10841,0.2364 -0.9365,3.02095 -1.06586,3.58409 l -0.0633,0.27569 h 3.93533 c 2.985,0 3.93533,-0.0356 3.93533,-0.14743 z"
         transform="matrix(2.7203604,0,0,2.7203604,-1321.4824,-642.85)"
         id="path16" /><path
         style="fill:#6de5cf;fill-opacity:1"
         d="m 382.44846,83.877118 c -1.34949,-0.34094 -2.73207,-1.54842 -3.18772,-2.78401 -0.36266,-0.9834 -0.3507,-2.62983 0.0263,-3.61563 0.14818,-0.38751 0.32059,-0.70457 0.38314,-0.70457 0.0625,0 0.11373,-0.0827 0.11373,-0.1838 0,-0.10109 0.0551,-0.1838 0.12253,-0.1838 0.0674,0 0.12424,-0.0689 0.12633,-0.15316 0.004,-0.17338 0.86532,-0.85072 1.3747,-1.08142 0.18533,-0.0839 0.33697,-0.19433 0.33697,-0.24532 0,-0.15295 1.18092,-0.35812 2.05845,-0.35763 0.57172,3.2e-4 0.9327,0.0674 1.18867,0.2208 0.20218,0.12118 0.55721,0.2974 0.78897,0.39159 0.60645,0.24647 1.42968,1.0499 1.94589,1.89908 l 0.44692,0.73519 0.002,1.5055 c 10e-4,1.01983 -0.0442,1.53409 -0.14142,1.59415 -0.0789,0.0488 -0.18249,0.24419 -0.2302,0.43429 -0.0477,0.1901 -0.16236,0.37465 -0.25478,0.41012 -0.0924,0.0355 -0.16806,0.1275 -0.1681,0.20453 -1.3e-4,0.28362 -1.12584,1.28642 -1.80839,1.61095 -0.78222,0.37193 -2.27745,0.51702 -3.12398,0.30314 z"
         id="path39"
         transform="matrix(2.7203604,0,0,2.7203604,-1321.4824,-642.85)" /><path
         style="fill:#ece6da;fill-opacity:1"
         d="m 394.73287,88.205598 c -1.85071,-0.66507 -2.98725,-1.94218 -3.30939,-3.7187 -0.21552,-1.18852 0.0628,-2.62454 0.65954,-3.40321 0.34495,-0.45009 1.35485,-1.36999 1.50404,-1.36999 0.091,0 0.16555,-0.0421 0.16555,-0.0936 0,-0.20834 1.09555,-0.55661 1.92934,-0.61333 1.00056,-0.0681 1.8075,0.10706 2.51004,0.54475 0.25139,0.15661 0.48656,0.28474 0.52261,0.28474 0.1076,0 1.16465,1.05988 1.16465,1.16777 0,0.0547 0.0734,0.18658 0.16304,0.29298 0.52335,0.62098 0.76718,2.26689 0.51409,3.47013 -0.32848,1.56163 -1.44544,2.77426 -3.05771,3.31963 -0.58103,0.19653 -2.33937,0.2721 -2.7658,0.11886 z"
         id="path38"
         transform="matrix(2.7203604,0,0,2.7203604,-1321.4824,-642.85)" /><path
         style="fill:#e77f1e;fill-opacity:1"
         d="m 397.23991,101.41248 c -0.72481,-0.11915 -1.93719,-0.79308 -2.49979,-1.38957 -1.03905,-1.101642 -1.47789,-2.842412 -1.10755,-4.393442 0.17479,-0.73204 0.57454,-1.57943 0.74508,-1.57943 0.0606,0 0.11016,-0.0583 0.11016,-0.12944 0,-0.16552 0.66729,-0.79024 1.23716,-1.15824 0.61937,-0.39997 1.62225,-0.67285 2.47284,-0.67285 0.79368,0 2.0012,0.30225 2.26619,0.56725 0.0924,0.0924 0.21038,0.16795 0.26224,0.16795 0.15102,0 1.23607,1.06497 1.23607,1.21319 0,0.0741 0.0417,0.13467 0.0926,0.13467 0.22752,0 0.76188,1.6814 0.76378,2.4033 0.003,1.344 -0.4378,2.52847 -1.26294,3.38952 -0.74318,0.775522 -1.38201,1.150942 -2.32742,1.367742 -0.87587,0.20085 -1.17644,0.21285 -1.98844,0.0794 z"
         id="path37"
         transform="matrix(2.7203604,0,0,2.7203604,-1321.4824,-642.85)" /><path
         style="fill:#145a59;fill-opacity:1"
         d="m 384.13379,109.5247 c -0.53015,-0.0496 -1.6027,-0.50414 -2.02338,-0.85759 -0.51225,-0.43039 -1.08007,-1.33356 -1.28773,-2.04827 -0.5426,-1.8675 0.26099,-3.83933 1.92917,-4.73375 0.70998,-0.38066 0.85427,-0.41246 1.87207,-0.41259 1.27949,-1.7e-4 1.86375,0.2262 2.77571,1.07542 0.67733,0.63073 0.88673,0.96229 1.13431,1.79598 0.26323,0.88636 0.2451,1.55606 -0.0679,2.50956 -0.44708,1.36191 -1.63324,2.34462 -3.18531,2.63896 -0.34594,0.0656 -0.63524,0.11001 -0.64289,0.0987 -0.008,-0.0113 -0.23446,-0.0412 -0.50404,-0.0664 z"
         id="path36"
         transform="matrix(2.7203604,0,0,2.7203604,-1321.4824,-642.85)" /><path
         id="path35"
         style="fill:#193530;fill-opacity:1"
         d="m 386.44952,67.074008 c -1.84945,-0.03097 -3.69454,0.140799 -5.31784,0.519559 -0.57284,0.13366 -1.12462,0.284885 -1.22571,0.336185 -0.10109,0.05131 -0.51411,0.199717 -0.91847,0.328947 -0.40436,0.12924 -0.87305,0.323333 -1.04153,0.431893 -0.16848,0.10856 -0.48552,0.268992 -0.70454,0.356292 -0.21903,0.08733 -0.39812,0.201549 -0.39812,0.254149 0,0.05263 -0.15166,0.150249 -0.33699,0.216349 -0.18533,0.06614 -0.50236,0.26449 -0.70454,0.44074 -0.20217,0.17624 -0.40692,0.32001 -0.45522,0.3201 -0.0961,1.6e-4 -0.82938,0.641199 -1.61578,1.412299 -0.54215,0.5316 -1.66644,1.940581 -1.66644,2.088691 0,0.04987 -0.13892,0.273455 -0.30884,0.496235 -0.6658,0.8729 -1.52423,3.249269 -1.83776,5.088619 -0.24548,1.4401 -0.19186,4.246384 0.10697,5.618634 0.19555,0.89795 0.79073,2.696274 0.93295,2.818164 0.0393,0.03369 0.1769,0.309584 0.30562,0.612854 0.12872,0.30327 0.3065,0.638365 0.3949,0.744755 0.0884,0.1064 0.16085,0.234612 0.16085,0.284712 0,0.05005 0.0694,0.162932 0.15362,0.250932 0.0842,0.08802 0.2359,0.284299 0.33699,0.436719 0.27577,0.41579 0.78368,1.033835 0.88791,1.080135 0.0506,0.02247 0.0917,0.119241 0.0917,0.214741 0,0.09549 0.0557,0.173722 0.12305,0.173722 0.0674,0 0.12225,0.06284 0.12225,0.139139 0,0.07633 0.0968,0.228368 0.21474,0.338598 0.30037,0.28073 0.74875,1.143584 0.98363,1.891644 0.24454,0.77874 0.26888,2.66931 0.0418,3.26936 -0.3062,0.80919 -0.81209,1.742838 -1.08496,2.003438 -0.15047,0.1437 -0.27487,0.305204 -0.27587,0.358704 -10e-4,0.05349 -0.14393,0.246285 -0.31769,0.428673 -0.89498,0.9394 -1.93866,2.89363 -2.30423,4.31411 -0.44243,1.71915 -0.49492,3.70563 -0.13431,5.0846 0.24633,0.94196 1.06578,2.64012 1.65519,3.42941 0.57624,0.77165 1.60548,1.75379 2.32434,2.21737 0.30327,0.19557 0.57915,0.38464 0.61285,0.42064 0.0607,0.0649 1.79491,0.91019 2.26724,1.10506 1.25838,0.51917 3.79618,1.05973 5.72641,1.22008 1.95396,0.16233 5.01145,0.002 6.93924,-0.36353 2.28667,-0.43365 5.71783,-1.64527 7.24568,-2.55838 0.23588,-0.14097 0.59404,-0.34768 0.79622,-0.46005 0.20218,-0.11237 0.39498,-0.24263 0.42868,-0.28953 0.0337,-0.0469 0.36525,-0.27852 0.73591,-0.51393 1.91572,-1.21668 4.55421,-3.56788 5.82211,-5.18755 0.26378,-0.33696 0.51304,-0.64028 0.55414,-0.67398 0.0411,-0.0337 0.17904,-0.2402 0.30643,-0.45923 0.12739,-0.21902 0.26816,-0.39812 0.31286,-0.39812 0.0447,0 0.14944,-0.16537 0.23324,-0.36755 0.0837,-0.20218 0.20138,-0.36755 0.26058,-0.36755 0.0592,0 0.10697,-0.0599 0.10697,-0.13271 0,-0.0728 0.18855,-0.41727 0.41903,-0.76566 0.37273,-0.56342 1.41954,-2.65192 1.41954,-2.83264 0,-0.0386 0.1073,-0.30385 0.23886,-0.58953 0.91262,-1.981874 1.6539,-5.508322 1.79996,-8.561462 0.10133,-2.11827 -0.23371,-5.518505 -0.69328,-7.029325 -0.0615,-0.20218 -0.22643,-0.781383 -0.36594,-1.286833 -0.25334,-0.9178 -0.43642,-1.424841 -0.88148,-2.435331 -0.12986,-0.29483 -0.33835,-0.790945 -0.46326,-1.102655 -0.24228,-0.60459 -0.54045,-1.160024 -1.22812,-2.288954 -0.23588,-0.38722 -0.49567,-0.819463 -0.57747,-0.961103 -0.24363,-0.42194 -0.43615,-0.69183 -0.98443,-1.37852 -0.28642,-0.35872 -0.52117,-0.678675 -0.52117,-0.710975 0,-0.03233 -0.15165,-0.220062 -0.33698,-0.416612 -0.18533,-0.19656 -0.50525,-0.542707 -0.71098,-0.769687 -1.07317,-1.18402 -3.91481,-3.549171 -4.83367,-4.022961 -0.16849,-0.08687 -0.41613,-0.251239 -0.55092,-0.365139 -0.13479,-0.11389 -0.49377,-0.31219 -0.79703,-0.44074 -0.30327,-0.12855 -0.57835,-0.266836 -0.61205,-0.308036 -0.10321,-0.1261 -1.44462,-0.728669 -1.62222,-0.728669 -0.0918,0 -0.2191,-0.04533 -0.2831,-0.100534 -0.13715,-0.11828 -1.69626,-0.703866 -2.13856,-0.803466 -0.16848,-0.03794 -0.82997,-0.207933 -1.4702,-0.377203 -1.63926,-0.433395 -3.49332,-0.667133 -5.34277,-0.698107 z m 0.0965,3.437452 c 0.34115,0.0034 0.67191,0.01465 0.98523,0.03458 1.36427,0.08683 3.79174,0.505937 4.17417,0.720627 0.12068,0.0678 0.26814,0.09259 0.32814,0.05549 0.06,-0.0371 0.14349,-0.0114 0.18579,0.0571 0.0423,0.06853 0.16713,0.124662 0.27666,0.124662 0.10953,0 0.42331,0.102923 0.69731,0.228413 0.274,0.12549 1.04962,0.46765 1.72355,0.76084 2.66691,1.1602 5.71505,3.493035 7.57784,5.799595 0.21264,0.2633 0.47099,0.56847 0.57425,0.678 0.2337,0.24791 0.85695,1.181391 1.08898,1.631061 0.0956,0.18533 0.21986,0.336989 0.27586,0.336989 0.056,0 0.10134,0.05384 0.10134,0.119836 0,0.06597 0.24846,0.630572 0.55173,1.254662 0.30326,0.62409 0.55173,1.200295 0.55173,1.279595 0,0.07934 0.0464,0.162482 0.10375,0.184982 0.13753,0.0539 0.94806,2.505965 1.18791,3.594285 0.30842,1.39949 0.66835,4.084595 0.66835,4.984065 0,2.31213 -0.88922,6.490125 -1.83857,8.636258 -0.56062,1.26734 -1.91394,3.70413 -2.20048,3.96264 -0.0374,0.0337 -0.22129,0.29824 -0.40857,0.58712 -0.37563,0.57939 -0.69512,0.97842 -1.24984,1.56109 -0.20218,0.21236 -0.51081,0.54625 -0.68523,0.74234 -0.53881,0.60575 -2.12317,1.94424 -3.11334,2.62916 -0.33697,0.23308 -0.64027,0.45543 -0.67397,0.49463 -0.18584,0.21644 -2.54237,1.4475 -3.8597,2.0163 -0.875,0.37782 -3.14591,0.95158 -5.06369,1.27879 -3.90672,0.66655 -8.95359,-0.1102 -11.57908,-1.78146 -2.04538,-1.30199 -3.14631,-3.21688 -3.14631,-5.47225 0,-0.71067 0.30534,-2.04542 0.62653,-2.73774 0.12712,-0.274 0.23083,-0.53893 0.23083,-0.58873 0,-0.14601 0.9231,-1.44333 1.40586,-1.97609 0.87769,-0.96858 1.48234,-1.973317 1.84339,-3.063467 0.48234,-1.45636 0.53485,-3.935005 0.11662,-5.490755 -0.18452,-0.6864 -0.99136,-2.53157 -1.16217,-2.65731 -0.0458,-0.0337 -0.15134,-0.18968 -0.23404,-0.34664 -0.16929,-0.32129 -0.36929,-0.577905 -0.98926,-1.268335 -0.46334,-0.51599 -0.95446,-1.307715 -1.35439,-2.183595 -0.13848,-0.30327 -0.30284,-0.662252 -0.36514,-0.797032 -0.9237,-1.99771 -0.97994,-5.83204 -0.11903,-8.08694 0.20753,-0.54356 0.92447,-1.962825 1.01097,-2.001025 0.0508,-0.02246 0.0925,-0.11924 0.0925,-0.21474 0,-0.09549 0.0548,-0.173723 0.12225,-0.173723 0.0674,0 0.12305,-0.05758 0.12305,-0.127879 0,-0.219 1.98551,-2.117822 2.72407,-2.605032 0.38649,-0.25496 1.04878,-0.629246 1.47101,-0.831616 0.42223,-0.20238 0.90794,-0.444861 1.08013,-0.538861 0.86513,-0.47236 3.75497,-0.833722 6.14302,-0.809901 z"
         transform="matrix(2.7203604,0,0,2.7203604,-1321.4824,-642.85)" /></g></g></svg>
