<?xml version="1.0" encoding="UTF-8" standalone="no"?>
<!-- Created with Inkscape (http://www.inkscape.org/) -->

<svg
   width="300"
   height="300"
   viewBox="0 0 300 300"
   version="1.1"
   id="svg1"
   xml:space="preserve"
   xmlns="http://www.w3.org/2000/svg"
   xmlns:svg="http://www.w3.org/2000/svg"><defs
     id="defs1" /><g
     id="layer1"><g
       id="g26"
       transform="matrix(0.91172458,0,0,0.91172458,-173.21645,480.61895)"><path
         style="fill:#e77f1e;fill-opacity:1;stroke-width:2.72036"
         d="m 412.82103,-367.59373 c -0.90248,-0.86511 -2.66443,-2.47295 -3.91547,-3.57293 -3.60935,-3.1736 -12.11007,-11.81983 -12.11007,-12.31736 0,-0.11588 -0.27685,-0.50767 -0.61521,-0.87087 -0.59543,-0.63912 -1.93132,-3.16611 -2.6842,-5.07747 -0.54631,-1.38686 -0.44432,-5.36906 0.18797,-7.33836 0.70934,-2.20945 2.05486,-4.19006 3.67121,-5.40413 0.70047,-0.52612 1.34859,-1.05964 1.44024,-1.18559 0.48363,-0.66456 4.47663,-1.39092 6.64622,-1.20904 2.89996,0.2432 4.93615,1.25599 7.44068,3.70122 1.79971,1.75708 2.57977,2.23725 2.57977,1.58795 0,-0.34954 2.62153,-3.0706 3.50978,-3.64308 2.02275,-1.30362 3.04352,-1.56358 6.15691,-1.56801 2.91106,-0.005 3.3297,0.0805 5.18664,1.04962 2.21255,1.15458 4.03247,2.96092 5.21559,5.17674 0.67658,1.26717 0.7636,1.89136 0.75715,5.43169 -0.005,3.47121 -0.11099,4.23136 -0.79105,5.75 -0.43107,0.96252 -0.91529,1.75 -1.07606,1.75 -0.16078,0 -0.29228,0.19723 -0.29228,0.43817 0,0.4428 -4.40987,5.33585 -6.79146,7.53565 -0.71031,0.65607 -2.38995,2.24285 -3.73253,3.52618 -1.34258,1.28333 -3.29699,3.08335 -4.34316,4.00003 -1.04617,0.91665 -2.29152,2.05036 -2.76748,2.51929 -1.49209,1.4702 -1.87841,1.44076 -3.67316,-0.2797 z"
         id="path24" /><path
         style="fill:#193530;fill-opacity:1;stroke-width:2.72036"
         d="m 284.1288,-286.30403 v -2.97069 l 1.41666,-0.20838 c 6.82601,-1.00419 12.1824,-4.49678 15.61794,-10.18353 2.74612,-4.54556 4.20965,-8.22104 10.28634,-25.83333 0.94883,-2.75002 1.93077,-5.525 2.18211,-6.16668 1.89108,-4.82788 2.83029,-7.38222 2.83029,-7.6974 0,-0.20266 0.20838,-0.84119 0.46319,-1.41888 0.90286,-2.04737 2.20347,-5.9312 2.20347,-6.5799 0,-0.36195 -0.26252,-0.7574 -0.58333,-0.87881 -0.32084,-0.12133 -1.27626,-0.71671 -2.12313,-1.32286 -0.84691,-0.60618 -1.6465,-1.10215 -1.77686,-1.10215 -0.13031,0 -1.02797,-0.52501 -1.99468,-1.16666 -0.96673,-0.64168 -1.85762,-1.16668 -1.97979,-1.16668 -0.12215,0 -0.78165,-0.34257 -1.46549,-0.76132 -1.17726,-0.72084 -6.80827,-3.23867 -7.24315,-3.23867 -0.11181,0 -0.83276,-0.28569 -1.60186,-0.63488 -4.70124,-2.13439 -16.07822,-2.07857 -21.27942,0.10446 -1.87805,0.78823 -4.99703,2.69882 -6.26232,3.83612 -0.62887,0.56524 -1.26636,1.02773 -1.41668,1.02773 -0.15044,0 -0.27329,0.22497 -0.27329,0.5 0,0.275 -0.11453,0.49997 -0.25463,0.49997 -0.1401,0 -0.62546,0.60001 -1.07867,1.33336 -0.45324,0.73333 -0.91489,1.33333 -1.02593,1.33333 -0.11099,0 -0.39111,0.63749 -0.62242,1.41666 -0.23123,0.77916 -0.57811,1.60988 -0.77076,1.846 -0.53118,0.65118 -0.72076,6.6761 -0.27538,8.75282 0.73716,3.43728 2.60112,6.36325 5.45481,8.56277 1.84386,1.42117 6.81118,1.8891 8.89501,0.8379 1.79282,-0.90441 2.43502,-2.3557 2.69383,-6.08773 0.18472,-2.66307 0.36355,-3.41865 1.02071,-4.31197 2.44832,-3.32814 8.14133,-3.44079 11.40266,-0.22551 4.78639,4.71862 2.23905,14.15596 -4.7671,17.66098 -1.28173,0.64122 -3.19477,1.34536 -4.25125,1.56475 -2.24304,0.46584 -10.15741,0.27832 -10.82037,-0.25625 -0.23857,-0.19233 -0.95881,-0.46132 -1.60049,-0.59753 -1.48178,-0.31453 -5.33332,-2.11826 -5.33332,-2.49767 0,-0.15778 -0.31622,-0.38711 -0.7027,-0.50977 -0.91891,-0.29165 -4.7319,-4.18938 -5.45359,-5.57484 -0.30955,-0.5942 -0.90743,-1.69372 -1.32865,-2.44331 -1.36124,-2.42262 -1.97963,-5.57897 -1.98608,-10.1371 -0.005,-4.25663 0.47136,-6.412 2.36231,-10.66667 2.0987,-4.72208 5.98612,-8.74653 10.78916,-11.16953 1.00074,-0.50484 1.89454,-1.02609 1.98622,-1.15835 0.0917,-0.13221 0.99165,-0.5008 1.99998,-0.81894 1.00833,-0.31815 2.28334,-0.77751 2.83334,-1.02079 2.18804,-0.96779 8.42218,-1.5842 14.00001,-1.38423 6.33621,0.22715 11.44518,1.29288 16.66667,3.47673 1.77315,0.7416 9.82148,4.83357 10.91079,5.54731 1.03042,0.67516 1.00637,0.70609 2.24922,-2.89409 1.53926,-4.45869 2.70053,-7.69892 3.01465,-8.41143 0.16159,-0.36668 0.44026,-1.19166 0.61915,-1.83334 0.179,-0.64168 0.79462,-2.44166 1.36835,-3.99999 0.57369,-1.55833 2.03292,-5.68335 3.24272,-9.16669 1.20983,-3.48331 2.42498,-6.85833 2.70037,-7.49998 0.57277,-1.33458 2.87789,-7.76298 3.58584,-10.00002 0.26115,-0.825 0.61145,-1.80001 0.77859,-2.16666 0.16703,-0.36667 0.78379,-2.09165 1.37036,-3.83334 0.58653,-1.74165 1.2599,-3.61666 1.49636,-4.16666 0.2364,-0.55001 1.13374,-3.09999 1.99394,-5.66668 0.86023,-2.56666 1.92531,-5.44485 2.36685,-6.396 0.44154,-0.95115 0.80281,-1.88807 0.80281,-2.08203 0,-0.44089 1.27299,-4.34256 1.64206,-5.03291 0.15016,-0.28101 0.37217,-0.96173 0.4932,-1.51271 l 0.22008,-1.00175 -2.09433,-0.0691 c -1.15185,-0.0381 -3.7443,-0.21546 -5.76096,-0.39418 -9.06405,-0.80363 -13.66075,-1.05822 -15.42751,-0.8545 -1.04821,0.12079 -2.28081,0.26279 -2.73916,0.31559 -3.48212,0.40033 -9.07589,1.93135 -10.02624,2.74417 -0.28945,0.24755 -0.63853,0.45008 -0.77577,0.45008 -0.13711,0 -1.25044,0.69209 -2.47376,1.53798 -3.18568,2.20279 -5.64097,5.61227 -7.46301,10.3633 -1.10248,2.87468 -1.07579,8.10629 0.0566,11.07858 0.92057,2.4165 3.40347,5.2645 5.34897,6.13548 4.1418,1.85417 9.44365,1.42582 12.22296,-0.98758 0.39761,-0.34526 1.1101,-0.91126 1.58333,-1.25778 0.47321,-0.34649 0.86039,-0.8215 0.86039,-1.05556 0,-0.23395 0.11644,-0.47551 0.25898,-0.53664 0.14228,-0.0612 0.65371,-0.91728 1.13622,-1.90259 l 0.87734,-1.7915 1.0151,1.77738 c 0.92316,1.61641 1.09658,2.32446 1.55308,6.34146 0.1401,1.23308 -0.44061,3.87267 -1.23888,5.63082 -2.75374,6.06501 -9.1666,9.64449 -17.43509,9.73179 -2.58573,0.0272 -4.2563,-0.13167 -5.66667,-0.53891 -2.4425,-0.70544 -6.83333,-2.76511 -6.83333,-3.2054 0,-0.17655 -0.17628,-0.32081 -0.39189,-0.32081 -0.76475,0 -5.12712,-4.90195 -6.35852,-7.14497 -2.16048,-3.93544 -2.65259,-6.01254 -2.83538,-11.96782 -0.0963,-3.13698 -0.0286,-5.57184 0.16703,-6 0.18091,-0.3963 0.58456,-1.77055 0.8968,-3.05388 0.63346,-2.60357 3.0529,-7.78583 4.44643,-9.52395 1.13956,-1.42133 5.30051,-5.64273 5.56197,-5.64273 0.20375,0 2.89163,-1.69585 3.18021,-2.00649 0.30628,-0.32968 4.82004,-2.28317 5.83335,-2.52457 0.55,-0.13113 1.075,-0.32949 1.16665,-0.441 0.38071,-0.46312 7.81864,-2.04664 12,-2.55477 5.02178,-0.61026 16.78239,-0.51015 24.16667,0.20566 2.20001,0.21327 6.5401,0.42353 9.64469,0.46719 l 5.64466,0.0794 0.42414,0.9706 c 0.2334,0.53382 0.9626,2.47061 1.62076,4.30394 3.8548,10.73786 4.57573,12.77772 4.88892,13.83333 0.19043,0.64165 0.46143,1.31665 0.60229,1.49998 0.14091,0.18335 0.60433,1.53336 1.0299,3.00001 0.42555,1.46666 1.2697,3.94064 1.87585,5.49772 0.60618,1.55708 1.10213,3.09457 1.10213,3.41666 0,0.32209 0.13819,0.58561 0.30686,0.58561 0.16866,0 0.41363,0.48752 0.54415,1.08336 0.20675,0.94369 1.61277,4.77622 2.47637,6.75 0.1605,0.36665 0.53812,1.49166 0.83929,2.49998 0.3012,1.00833 0.68349,2.13334 0.84957,2.50002 0.16594,0.36665 0.54646,1.41665 0.84532,2.33333 0.29886,0.91665 0.80281,2.26666 1.11984,2.99999 0.31703,0.73332 1.26853,3.28334 2.1144,5.66667 5.66994,15.97549 7.99905,22.48066 8.41391,23.5 0.26115,0.64168 0.70405,1.84169 0.98422,2.66666 1.72692,5.0852 2.62847,7.62039 3.02276,8.50001 0.61777,1.3783 1.76328,4.63335 2.40477,6.83333 0.29402,1.00833 0.62324,1.90833 0.73164,2.00001 0.10827,0.0917 0.54802,1.29166 0.97694,2.66666 0.6991,2.24114 1.93208,5.69045 2.68094,7.50001 1.13815,2.75023 2.78187,7.39568 3.89224,10.99999 0.28237,0.91668 0.80218,2.27654 1.15512,3.02192 0.35291,0.74537 0.64168,1.57789 0.64168,1.85 0,0.27212 0.12459,0.63725 0.27715,0.81143 0.15234,0.17411 0.46948,0.99166 0.7046,1.81666 0.23504,0.825 0.72655,2.17501 1.09211,3.00001 1.55537,3.51014 2.65181,5.86619 2.94735,6.33333 0.1741,0.275 0.41698,0.725 0.53994,1 0.12296,0.275 0.30949,0.57501 0.41453,0.66665 0.105,0.0917 0.48406,0.69155 0.84222,1.33309 0.66535,1.1916 0.97509,1.55406 3.89167,4.55399 2.20887,2.27197 6.2658,4.33881 9.62376,4.90291 l 2.50001,0.41994 0.24728,2.64503 c 0.13602,1.4548 0.17819,2.83255 0.0939,3.06171 -0.12132,0.32906 -6.35963,0.41668 -29.66392,0.41668 h -29.51047 v -3.00001 c 0,-1.64998 0.0413,-2.99999 0.0919,-2.99999 0.0506,0 1.33444,-0.15587 2.85287,-0.34616 4.41517,-0.55362 7.70977,-2.39305 8.63409,-4.82051 1.08284,-2.84381 0.64576,-7.62699 -1.12963,-12.3623 -0.47519,-1.26741 -1.30405,-3.57937 -1.84198,-5.1377 -0.53792,-1.55833 -1.11442,-3.13333 -1.2811,-3.50001 -0.34007,-0.74802 -3.03578,-8.32251 -3.64623,-10.24534 -0.21736,-0.68496 -0.49845,-1.30907 -0.62446,-1.38692 -0.12595,-0.0778 -1.87754,0.0658 -3.89235,0.3192 -3.73269,0.46954 -7.7645,0.29348 -12.66328,-0.55299 -2.14247,-0.37021 -10.06865,-2.86615 -10.73475,-3.38038 -0.58959,-0.45514 -2.86114,-1.58689 -3.18508,-1.58689 -0.15343,0 -1.11815,-0.53689 -2.14395,-1.19307 -1.02576,-0.6562 -2.18107,-1.33085 -2.56731,-1.49922 -0.38624,-0.16839 -0.99976,-0.49399 -1.36342,-0.72359 -1.97003,-1.24388 -3.69204,-2.39696 -3.83883,-2.57055 -0.38989,-0.46099 -5.00824,-3.44939 -5.13254,-3.32109 -0.0751,0.0775 -0.51175,1.26584 -0.97046,2.64084 -0.45868,1.37501 -1.60988,4.67499 -2.5582,7.33333 -0.94831,2.65834 -2.00308,5.65835 -2.34391,6.66668 -0.34081,1.00833 -1.08877,3.10834 -1.66209,4.66667 -0.57332,1.55833 -1.48273,4.22083 -2.02093,5.91665 -0.53819,1.69584 -1.44383,4.54586 -2.01252,6.33335 -2.24302,7.05019 -2.41174,9.74346 -0.81317,12.98074 1.45332,2.94319 4.27143,4.71836 8.34715,5.25811 0.91668,0.12132 2.07917,0.29798 2.58334,0.39241 l 0.91665,0.17165 v 2.97352 2.97352 h -21.16666 -21.16666 z m 85.24998,-49.17326 c 0.11153,-0.10474 -1.53649,-5.12484 -3.23555,-9.85603 -0.75715,-2.10834 -1.89677,-5.33335 -2.53249,-7.16668 -0.63572,-1.83334 -1.2546,-3.55832 -1.37528,-3.83332 -0.12078,-0.275 -0.40326,-1.1 -0.62791,-1.83333 -0.50969,-1.66372 -2.07838,-6.10748 -2.47109,-7.00001 -0.16132,-0.36667 -0.59905,-1.56668 -0.97272,-2.66668 -0.37367,-1.09998 -1.22338,-3.5 -1.8882,-5.33333 -0.66486,-1.83333 -1.94664,-5.50835 -2.84841,-8.16666 -0.9018,-2.65833 -1.78255,-5.13334 -1.95725,-5.50002 -0.37413,-0.78526 -1.4444,-3.78974 -2.43423,-6.83333 -0.38754,-1.19165 -0.81807,-2.24615 -0.95672,-2.34332 -0.13874,-0.0971 -0.35335,-0.80966 -0.47705,-1.58333 C 347.47811,-398.367 347.28172,-399 347.16537,-399 c -0.11643,0 -0.49494,1.01249 -0.84127,2.24998 -0.34635,1.23752 -0.71311,2.3986 -0.81507,2.58018 -0.23314,0.4151 -2.96057,8.26701 -3.41694,9.8365 -0.18661,0.64168 -0.53754,1.61666 -0.77987,2.16666 -0.24238,0.55 -0.84973,2.20001 -1.34973,3.66666 -1.11103,3.25905 -4.77579,13.41405 -5.17263,14.33334 -0.52381,1.21339 -4.03098,11.90849 -3.92837,11.97954 0.0555,0.0384 0.62566,0.42868 1.26731,0.86745 0.64168,0.43876 1.33042,0.95269 1.53056,1.14206 0.20022,0.18933 0.86137,0.71929 1.46945,1.17764 0.60806,0.45833 1.26932,0.98548 1.46946,1.17144 0.91429,0.8496 3.47893,2.75886 5.01161,3.73095 0.92707,0.58798 1.86677,1.22547 2.08821,1.41666 0.22143,0.19124 0.5096,0.3476 0.6404,0.3476 0.13084,0 0.47464,0.20621 0.76406,0.45819 0.28945,0.25191 1.50126,0.96451 2.69291,1.58333 1.19169,0.61883 2.24169,1.21552 2.33334,1.32596 0.0917,0.11045 1.44168,0.68319 3.00001,1.27275 4.78629,1.81078 10.19833,2.76348 14.00001,2.46446 1.19166,-0.0939 2.20415,-0.20566 2.24996,-0.24864 z"
         id="path18" /></g></g></svg>
