<?xml version="1.0" encoding="UTF-8" standalone="no"?>
<!-- Created with Inkscape (http://www.inkscape.org/) -->

<svg
   width="300"
   height="300"
   viewBox="0 0 300 300"
   version="1.1"
   id="svg1"
   xml:space="preserve"
   xmlns="http://www.w3.org/2000/svg"
   xmlns:svg="http://www.w3.org/2000/svg"><defs
     id="defs1" /><g
     id="layer1"><g
       id="g25"
       transform="matrix(0.8870131,0,0,0.8870131,116.2925,471.54742)"><path
         style="fill:#193530;fill-opacity:1"
         d="m 486.15486,138.78749 c -0.78894,-0.42031 -1.12129,-1.65159 -0.642,-2.37848 0.47848,-0.72569 0.59873,-0.75529 3.26059,-0.80244 2.94362,-0.0521 2.82398,0.0125 2.93783,-1.58692 0.0417,-0.586 0.0998,-1.21494 0.12896,-1.39766 0.0292,-0.18272 0.003,-0.36295 -0.0574,-0.40052 -0.0608,-0.0376 -4.34839,-0.0673 -9.528,-0.0661 -10.305,0.002 -10.0369,0.0193 -11.60528,-0.72922 -0.81916,-0.39095 -1.91463,-1.41085 -2.35226,-2.18997 -0.15059,-0.26812 -0.37149,-0.7819 -0.49087,-1.14173 -0.20378,-0.6142 -0.21969,-1.98141 -0.25989,-22.33229 -0.0275,-13.937742 8.2e-4,-22.031722 0.0794,-22.668572 0.11968,-0.97004 0.5242,-2.17867 0.83684,-2.50031 0.0866,-0.0891 0.15739,-0.20835 0.15739,-0.26511 0,-0.19844 1.40799,-1.49793 1.88873,-1.74318 1.23782,-0.63149 1.88902,-0.70931 5.9353,-0.70931 3.71748,0 3.78971,0.005 4.13703,0.27132 0.60664,0.46563 0.75854,0.70301 0.84305,1.31745 0.0837,0.6089 -0.0164,0.93817 -0.41591,1.36695 -0.44974,0.48274 -0.80835,0.52426 -4.66869,0.54058 -4.07813,0.0172 -4.03722,0.0107 -4.74789,0.75828 -0.5034,0.52953 -0.58021,0.81737 -0.58133,2.17839 l -9e-4,1.1028 h 2.54262 2.54262 l -6e-5,1.68234 -7e-5,1.68234 -2.54255,0.0331 -2.54256,0.0331 -0.031,19.013252 -0.031,19.01325 0.27608,0.52547 c 0.15185,0.28901 0.51518,0.69326 0.8074,0.89833 l 0.53133,0.37286 h 27.16109 c 27.1524,0 27.16123,-8e-5 27.58826,-0.25094 0.23494,-0.13802 0.59335,-0.48738 0.79646,-0.77637 l 0.3693,-0.52543 0.0318,-19.16584 0.0318,-19.165842 h -2.57432 -2.57432 v -1.6542 -1.65419 h 2.58674 2.58674 l -0.0534,-1.31723 c -0.0294,-0.72447 -0.12192,-1.45507 -0.20564,-1.62356 -0.0837,-0.16848 -0.40607,-0.49932 -0.71637,-0.73519 l -0.56417,-0.42887 -3.94057,-0.0613 -3.94058,-0.0613 -0.41892,-0.31991 c -0.58885,-0.44968 -0.79592,-1.07314 -0.59488,-1.79117 0.126,-0.45002 0.25984,-0.62083 0.71036,-0.90653 l 0.5551,-0.35204 3.80516,9.3e-4 c 3.38004,8.4e-4 3.8873,0.0267 4.54036,0.23129 1.19305,0.3738 1.55586,0.57566 2.26903,1.26249 0.79708,0.76763 1.08529,1.20788 1.54829,2.36507 l 0.34319,0.85773 0.0383,22.178442 c 0.0279,16.1562 8.3e-4,22.32816 -0.0998,22.72983 -0.50949,2.03478 -1.71182,3.48419 -3.48253,4.19816 l -0.98414,0.39682 -9.80262,0.0323 -9.80263,0.0323 0.0317,1.43053 c 0.0466,2.10412 -0.0922,1.99631 2.57496,1.9999 2.44992,0.003 2.99356,0.0889 3.44739,0.54271 0.28024,0.28023 0.31767,0.41689 0.31767,1.15975 0,0.66724 -0.0504,0.89773 -0.24258,1.11012 -0.57622,0.63672 -0.0893,0.6158 -14.20062,0.61028 -12.42733,-0.005 -13.14886,-0.017 -13.54303,-0.22695 z"
         transform="matrix(2.7203604,0,0,2.7203604,-1321.4824,-642.85)"
         id="path17" /><path
         style="fill:#145a59;fill-opacity:1"
         d="m 497.52565,107.41747 c -1.13021,-0.10149 -1.39544,-0.32624 -1.52483,-1.29209 -0.0456,-0.34019 -0.18956,-1.11478 -0.31995,-1.72132 -0.1304,-0.60654 -0.26872,-1.25269 -0.30737,-1.43588 -0.0611,-0.28964 -0.22105,-0.39151 -1.22618,-0.78097 -0.63574,-0.24633 -1.22195,-0.51231 -1.30269,-0.59108 -0.0807,-0.0788 -0.32098,-0.21442 -0.5339,-0.30146 -0.31051,-0.12694 -0.44386,-0.12804 -0.67393,-0.006 -0.35394,0.18842 -1.25232,0.87616 -1.30792,1.00127 -0.0225,0.0505 -0.0953,0.0919 -0.16192,0.0919 -0.0666,0 -0.19074,0.0689 -0.27589,0.15316 -0.0851,0.0842 -0.30788,0.26345 -0.49496,0.39824 -0.18707,0.13478 -0.41825,0.31944 -0.51371,0.41034 -0.0955,0.0909 -0.38767,0.19399 -0.64932,0.22908 -0.60869,0.0816 -0.92109,-0.14842 -2.88324,-2.12342 -2.06977,-2.083302 -2.06519,-2.077272 -1.99211,-2.622122 0.0618,-0.4608 0.63958,-1.46202 1.23669,-2.14306 0.17726,-0.20218 0.32236,-0.43192 0.32245,-0.51055 8e-5,-0.0786 0.0438,-0.16134 0.0971,-0.1838 0.0533,-0.0225 0.25153,-0.24587 0.44044,-0.49645 l 0.34346,-0.4556 -0.55439,-1.13732 c -0.30491,-0.62553 -0.61828,-1.35888 -0.69638,-1.62966 -0.19899,-0.68998 -0.39047,-0.76257 -3.36736,-1.2766 -0.76205,-0.13159 -1.2062,-0.39867 -1.43957,-0.86566 -0.18124,-0.36269 -0.21427,-0.78511 -0.21443,-2.74263 -2.9e-4,-3.60248 0.0344,-3.65751 2.53182,-4.0214 1.96982,-0.28701 2.26334,-0.39587 2.4115,-0.89442 0.06,-0.20202 0.15782,-0.46306 0.21728,-0.58008 0.0595,-0.11702 0.10894,-0.28244 0.10994,-0.3676 10e-4,-0.0851 0.22143,-0.59248 0.48985,-1.12739 0.41021,-0.81748 0.46365,-1.00625 0.33515,-1.18384 -0.0841,-0.11621 -0.40102,-0.5401 -0.70429,-0.94198 -0.85299,-1.13038 -1.02738,-1.37578 -1.22532,-1.72435 -0.10109,-0.178 -0.23297,-0.3593 -0.29307,-0.40287 -0.0601,-0.0436 -0.08,-0.33856 -0.0443,-0.65552 0.0627,-0.55638 0.13507,-0.64569 2.09519,-2.58586 1.99459,-1.97429 2.03952,-2.00957 2.55955,-2.00957 0.40505,0 0.61717,0.0791 0.90349,0.33696 0.2058,0.18534 0.64542,0.5263 0.97694,0.75771 0.33152,0.2314 0.79576,0.57794 1.03163,0.77009 0.8769,0.71432 0.92993,0.74039 1.12355,0.55226 0.0897,-0.0871 0.49389,-0.31275 0.89824,-0.50137 1.01371,-0.47286 1.13681,-0.52244 1.86863,-0.75269 0.57757,-0.18171 0.6433,-0.23796 0.6433,-0.55047 0,-0.19144 0.10608,-0.80733 0.23575,-1.36865 0.12966,-0.56131 0.27431,-1.32185 0.32143,-1.69008 0.0667,-0.5215 0.16648,-0.74498 0.45114,-1.01089 l 0.36545,-0.34139 h 2.96774 c 2.91995,0 2.97187,0.004 3.22427,0.2757 0.25651,0.27568 0.55586,1.25903 0.69939,2.29749 0.0419,0.30327 0.12618,0.77196 0.18725,1.04153 0.0611,0.26957 0.14278,0.64177 0.18156,0.8271 0.0388,0.18533 0.12739,0.33696 0.19691,0.33696 0.21036,0 2.13278,0.78085 2.17664,0.8841 0.0225,0.0529 0.14653,0.0962 0.2757,0.0962 0.12917,0 0.23485,0.0485 0.23485,0.10767 0,0.0592 0.16308,0.17522 0.3624,0.25778 0.34089,0.1412 0.40646,0.11661 1.10417,-0.414 0.40797,-0.31026 0.77239,-0.56411 0.80983,-0.56411 0.10622,0 0.93837,-0.6434 1.22782,-0.94932 0.29729,-0.31421 0.87338,-0.46429 1.33627,-0.34811 0.37861,0.095 3.85723,3.51922 4.14967,4.08475 0.23003,0.44483 0.16302,1.27762 -0.12182,1.51402 -0.0927,0.0769 -0.16851,0.21268 -0.16851,0.3017 0,0.089 -0.0974,0.23389 -0.21642,0.32196 -0.11903,0.0881 -0.4634,0.54609 -0.76527,1.01784 -0.30186,0.47175 -0.59045,0.87611 -0.64131,0.89857 -0.19158,0.0846 -0.0804,0.69626 0.2576,1.41769 0.19253,0.41088 0.46937,1.10916 0.61519,1.55172 l 0.26513,0.80467 0.70204,0.20447 c 0.38612,0.11246 1.26907,0.2868 1.96212,0.38742 1.3068,0.18973 1.74063,0.38673 1.97866,0.8985 0.0802,0.17252 0.13073,1.31077 0.13045,2.94079 -6.2e-4,3.58731 0.12616,3.39194 -2.51147,3.87014 -0.60653,0.10996 -1.2276,0.19957 -1.38015,0.19912 -0.15255,-4.5e-4 -0.40068,0.0681 -0.5514,0.15235 -0.15072,0.0842 -0.2883,0.15824 -0.30574,0.16445 -0.0174,0.006 -0.2178,0.53206 -0.44526,1.16857 -0.22745,0.63651 -0.53024,1.375 -0.67286,1.6411 -0.30945,0.57737 -0.30793,0.5592 -0.0721,0.86074 0.10293,0.13165 0.62676,0.89231 1.16406,1.69036 1.10754,1.64504 1.1749,1.93164 0.63942,2.72083 -0.36798,0.542322 -2.1553,2.350262 -3.23473,3.272042 -1.01965,0.87072 -1.3983,0.79315 -3.16708,-0.64881 -0.30327,-0.24723 -0.6479,-0.48325 -0.76583,-0.52449 -0.11794,-0.0412 -0.21444,-0.1311 -0.21444,-0.19971 0,-0.0686 -0.20677,-0.21215 -0.45949,-0.319 -0.4389,-0.18555 -0.48423,-0.18151 -1.0109,0.0903 -0.30327,0.15648 -0.57897,0.31649 -0.61266,0.35556 -0.0337,0.0391 -0.52322,0.23206 -1.08783,0.42886 l -1.02655,0.35783 -0.21367,0.82285 c -0.11752,0.45257 -0.31012,1.41752 -0.42802,2.14433 -0.25975,1.60139 -0.36638,1.73421 -1.51075,1.88182 -0.89626,0.11562 -3.29299,0.11687 -4.56779,0.002 z m 4.54596,-12.048432 c 0.50545,-0.13529 0.94656,-0.28094 0.98026,-0.32365 0.0337,-0.0427 0.3763,-0.23959 0.76133,-0.4375 0.97406,-0.50066 2.13354,-1.52612 2.74679,-2.42932 0.19342,-0.28485 0.42059,-0.59078 0.50483,-0.67984 0.0842,-0.0891 0.15317,-0.21665 0.15317,-0.28355 0,-0.0669 0.13026,-0.40758 0.28946,-0.75708 0.41522,-0.91149 0.69081,-2.12154 0.6907,-3.03266 -1.2e-4,-0.89459 -0.28309,-2.4168 -0.56801,-3.05549 -0.64558,-1.44718 -1.10948,-2.20822 -1.70891,-2.80352 -0.36507,-0.36256 -0.66377,-0.70718 -0.66377,-0.76583 0,-0.0587 -0.0827,-0.10664 -0.1838,-0.10664 -0.10109,0 -0.29415,-0.11035 -0.42902,-0.24522 -0.37925,-0.37925 -1.93397,-1.13389 -2.8181,-1.36787 -1.05013,-0.2779 -2.95238,-0.28821 -4.02347,-0.0218 -0.80878,0.20117 -2.83837,1.10791 -2.83837,1.26808 0,0.0457 -0.19298,0.18708 -0.42886,0.31411 -0.23588,0.12702 -0.42886,0.26187 -0.42886,0.29965 0,0.0378 -0.26192,0.34822 -0.58204,0.68988 -0.89546,0.95572 -1.73626,2.58356 -1.98556,3.84419 -0.15568,0.78726 -0.19226,2.41675 -0.0701,3.12234 0.32726,1.89003 1.4055,3.80503 2.77567,4.92973 1.12339,0.92212 1.20684,0.98091 1.8838,1.32719 1.7367,0.88837 3.85998,1.07229 5.94284,0.51479 z"
         transform="matrix(2.7203604,0,0,2.7203604,-1321.4824,-642.85)"
         id="path23" /><path
         style="fill:#6de5cf;fill-opacity:1"
         d="m 506.31873,123.80992 c -0.4207,-0.35936 -0.44861,-0.42734 -0.44861,-1.0928 0,-0.65536 0.0352,-0.7455 0.46065,-1.1791 0.25336,-0.25823 0.64807,-0.60735 0.87714,-0.77583 0.22906,-0.16848 0.47865,-0.36739 0.55463,-0.442 0.18198,-0.17872 1.35616,-1.12169 1.93678,-1.5554 0.2527,-0.18876 0.45945,-0.41935 0.45945,-0.51242 0,-0.0931 -0.1792,-0.29504 -0.39823,-0.44883 -0.21903,-0.15379 -0.41661,-0.32297 -0.43907,-0.37594 -0.0225,-0.053 -0.094,-0.0963 -0.15902,-0.0963 -0.065,0 -0.23961,-0.12518 -0.38802,-0.27818 -0.14842,-0.153 -0.82125,-0.73936 -1.49518,-1.30303 -0.67393,-0.56366 -1.27304,-1.10663 -1.33136,-1.20659 -0.19398,-0.33248 -0.12315,-1.35017 0.11047,-1.58736 0.68413,-0.69459 1.34596,-0.81966 2.07162,-0.39152 0.23973,0.14145 0.43587,0.29498 0.43587,0.34118 0,0.0462 0.15163,0.17682 0.33696,0.29025 0.3352,0.20516 0.69154,0.50692 1.7485,1.4807 0.30459,0.28063 0.80085,0.70062 1.1028,0.93333 0.67107,0.51719 1.10025,0.89717 1.73648,1.53742 0.47463,0.47762 0.48579,0.50851 0.43732,1.20998 -0.0471,0.68218 -0.0818,0.7495 -0.66239,1.28659 -0.33696,0.31171 -0.81301,0.72257 -1.05789,0.91302 -0.46792,0.3639 -1.25806,1.03668 -1.82391,1.55299 -0.18465,0.16848 -0.49371,0.42857 -0.68679,0.57798 -0.19309,0.14941 -0.52607,0.43889 -0.73996,0.6433 -0.21389,0.2044 -0.43228,0.37165 -0.48531,0.37165 -0.053,0 -0.19084,0.11027 -0.30625,0.24506 -0.15628,0.18252 -0.36146,0.24507 -0.80395,0.24507 -0.48818,0 -0.67411,-0.0683 -1.04273,-0.38319 z"
         transform="matrix(2.7203604,0,0,2.7203604,-1321.4824,-642.85)"
         id="path21" /><path
         style="fill:#6de5cf;fill-opacity:1"
         d="m 491.81794,124.18828 c -0.21438,-0.0458 -0.46813,-0.15996 -0.5639,-0.25367 -0.0958,-0.0937 -0.41662,-0.37199 -0.71301,-0.61841 -0.2964,-0.24642 -0.70432,-0.59483 -0.9065,-0.77424 -0.20218,-0.17941 -0.61563,-0.52919 -0.91877,-0.77729 -0.30314,-0.2481 -0.78907,-0.67164 -1.07984,-0.94122 -0.29077,-0.26957 -0.63549,-0.53991 -0.76606,-0.60075 -0.13056,-0.0608 -0.23739,-0.18491 -0.23739,-0.2757 0,-0.0908 -0.0509,-0.16507 -0.11313,-0.16507 -0.0622,0 -0.27975,-0.14021 -0.48341,-0.31157 -0.39657,-0.3337 -0.61031,-1.12806 -0.44428,-1.65118 0.0925,-0.29131 1.32402,-1.55958 2.04857,-2.10962 0.24279,-0.18431 0.51521,-0.40487 0.60538,-0.49013 0.26724,-0.25268 1.85482,-1.62758 2.17226,-1.88125 0.16127,-0.12886 0.3803,-0.33079 0.48673,-0.44872 0.10644,-0.11794 0.25939,-0.21444 0.33989,-0.21444 0.0805,0 0.16933,-0.0689 0.19741,-0.15316 0.0318,-0.0953 0.28237,-0.15317 0.66304,-0.15317 0.79852,0 1.47662,0.47358 1.53566,1.0725 0.0656,0.66504 -0.11164,1.23752 -0.47683,1.5406 -1.92907,1.60099 -2.26941,1.89045 -2.58916,2.20207 -0.15884,0.1548 -0.50426,0.42404 -0.7676,0.59831 -0.26334,0.17428 -0.4788,0.38849 -0.4788,0.47603 0,0.0875 0.1792,0.28189 0.39823,0.43186 0.21902,0.14998 0.51274,0.38808 0.65269,0.52911 0.13996,0.14103 0.40904,0.3667 0.59796,0.50149 0.18892,0.13479 0.47184,0.35534 0.62871,0.49013 0.15687,0.13479 0.54813,0.46563 0.86946,0.7352 0.32133,0.26957 0.70599,0.60803 0.8548,0.75214 0.29779,0.28838 0.47612,0.98683 0.36501,1.42956 -0.18366,0.73174 -1.0707,1.23292 -1.87712,1.06059 z"
         transform="matrix(2.7203604,0,0,2.7203604,-1321.4824,-642.85)"
         id="path20" /><path
         style="fill:#e77f1e;fill-opacity:1"
         d="m 496.48411,125.73702 c -0.37978,-0.37978 -0.48284,-0.66518 -0.42476,-1.17632 0.0492,-0.43327 1.21471,-3.86582 1.78899,-5.26891 0.19782,-0.48331 0.43716,-1.13291 0.45146,-1.22532 0.009,-0.0613 0.28554,-0.85519 1.53388,-4.41118 0.3667,-1.0446 0.69654,-2.02695 0.73296,-2.18302 0.0364,-0.15606 0.24482,-0.47311 0.4631,-0.70456 0.34901,-0.37006 0.47056,-0.42081 1.00781,-0.42081 0.4793,0 0.68107,0.065 0.93641,0.30164 0.42029,0.38951 0.59856,0.87026 0.49808,1.34321 -0.12215,0.57492 -0.5797,1.962 -0.67001,2.03113 -0.044,0.0337 -0.1198,0.22669 -0.16841,0.42887 -0.0486,0.20218 -0.28656,0.89143 -0.52877,1.53166 -0.55732,1.47312 -1.2703,3.49228 -1.81723,5.14638 -0.23398,0.70762 -0.47575,1.39687 -0.53727,1.53166 -0.0615,0.13478 -0.31329,0.84944 -0.55948,1.58812 -0.54426,1.63306 -0.78217,1.90406 -1.67154,1.90406 -0.54014,0 -0.67145,-0.0529 -1.03522,-0.41661 z"
         transform="matrix(2.7203604,0,0,2.7203604,-1321.4824,-642.85)"
         id="path19" /></g></g></svg>
